<mxfile host="65bd71144e">
    <diagram id="NMNHoxecBD7GOg-Pw8OJ" name="Page-1">
        <mxGraphModel dx="4830" dy="2931" grid="1" gridSize="10" guides="1" tooltips="1" connect="1" arrows="1" fold="1" page="1" pageScale="1" pageWidth="850" pageHeight="1100" math="0" shadow="0">
            <root>
                <mxCell id="0"/>
                <mxCell id="1" parent="0"/>
                <mxCell id="2" value="" style="rounded=0;whiteSpace=wrap;html=1;dropTarget=1;recursiveResize=0;container=1;" parent="1" vertex="1">
                    <mxGeometry x="590" y="520" width="270" height="70" as="geometry"/>
                </mxCell>
                <mxCell id="14" value="" style="rounded=0;whiteSpace=wrap;html=1;dropTarget=1;recursiveResize=0;container=1;" parent="1" vertex="1">
                    <mxGeometry x="-70" y="30" width="640" height="1860" as="geometry"/>
                </mxCell>
                <mxCell id="13" value="" style="rounded=0;whiteSpace=wrap;html=1;dropTarget=1;recursiveResize=0;container=1;fillColor=#1D331F;fontColor=#ffffff;strokeColor=#4D4D4D;" parent="14" vertex="1">
                    <mxGeometry x="15" y="820" width="590" height="315" as="geometry"/>
                </mxCell>
                <mxCell id="15" value="&lt;h1&gt;Class ParticleSystem&lt;/h1&gt;&lt;p&gt;&amp;nbsp;The class has a main buffer:psBuffer for storing all particle systems.&lt;/p&gt;&lt;p&gt;&lt;br&gt;&lt;/p&gt;" style="text;html=1;strokeColor=none;fillColor=none;spacing=5;spacingTop=-20;whiteSpace=wrap;overflow=hidden;rounded=0;" parent="13" vertex="1">
                    <mxGeometry x="10" y="25" width="400" height="100" as="geometry"/>
                </mxCell>
                <mxCell id="16" value="Particles" style="swimlane;fontStyle=0;childLayout=stackLayout;horizontal=1;startSize=30;horizontalStack=0;resizeParent=1;resizeParentMax=0;resizeLast=0;collapsible=1;marginBottom=0;whiteSpace=wrap;html=1;fillColor=#1C1D1C;" parent="13" vertex="1">
                    <mxGeometry x="10" y="135" width="160" height="150" as="geometry"/>
                </mxCell>
                <mxCell id="17" value="psBuffer:[]" style="text;align=left;verticalAlign=middle;spacingLeft=4;spacingRight=4;overflow=hidden;points=[[0,0.5],[1,0.5]];portConstraint=eastwest;rotatable=0;whiteSpace=wrap;html=1;fillColor=#1D1D1D;" parent="16" vertex="1">
                    <mxGeometry y="30" width="160" height="30" as="geometry"/>
                </mxCell>
                <mxCell id="18" value="count:int&lt;span style=&quot;white-space: pre;&quot;&gt;&#9;&lt;/span&gt;" style="text;align=left;verticalAlign=middle;spacingLeft=4;spacingRight=4;overflow=hidden;points=[[0,0.5],[1,0.5]];portConstraint=eastwest;rotatable=0;whiteSpace=wrap;html=1;fillColor=#1D1D1D;" parent="16" vertex="1">
                    <mxGeometry y="60" width="160" height="30" as="geometry"/>
                </mxCell>
                <mxCell id="19" value="&lt;p style=&quot;line-height: 40%;&quot;&gt;&lt;font style=&quot;font-size: 17px;&quot;&gt;.&lt;br&gt;.&lt;br&gt;.&lt;/font&gt;&lt;/p&gt;" style="text;align=left;verticalAlign=middle;spacingLeft=4;spacingRight=4;overflow=hidden;points=[[0,0.5],[1,0.5]];portConstraint=eastwest;rotatable=0;whiteSpace=wrap;html=1;fillColor=#1C1C1D;" parent="16" vertex="1">
                    <mxGeometry y="90" width="160" height="60" as="geometry"/>
                </mxCell>
                <mxCell id="20" value="" style="rounded=0;whiteSpace=wrap;html=1;dropTarget=1;recursiveResize=0;container=1;fillColor=#2A331E;fontColor=#ffffff;strokeColor=#4D4D4D;" parent="14" vertex="1">
                    <mxGeometry x="15" y="1180" width="590" height="630" as="geometry"/>
                </mxCell>
                <mxCell id="4" value="&lt;h1&gt;Class Particles&lt;/h1&gt;&lt;p&gt;Particle Syystem consists of a class Particles. The class has a main buffer for storing all the meshes of the particles.&lt;/p&gt;&lt;p&gt;&lt;br&gt;&lt;/p&gt;" style="text;html=1;strokeColor=none;fillColor=none;spacing=5;spacingTop=-20;whiteSpace=wrap;overflow=hidden;rounded=0;" parent="20" vertex="1">
                    <mxGeometry x="10" y="27.5" width="400" height="100" as="geometry"/>
                </mxCell>
                <mxCell id="5" value="variables" style="swimlane;fontStyle=0;childLayout=stackLayout;horizontal=1;startSize=30;horizontalStack=0;resizeParent=1;resizeParentMax=0;resizeLast=0;collapsible=1;marginBottom=0;whiteSpace=wrap;html=1;fillColor=#1D1D1D;" parent="20" vertex="1">
                    <mxGeometry x="10" y="137.5" width="160" height="150" as="geometry"/>
                </mxCell>
                <mxCell id="6" value="buffer:[]" style="text;strokeColor=none;fillColor=#1D1D1D;align=left;verticalAlign=middle;spacingLeft=4;spacingRight=4;overflow=hidden;points=[[0,0.5],[1,0.5]];portConstraint=eastwest;rotatable=0;whiteSpace=wrap;html=1;" parent="5" vertex="1">
                    <mxGeometry y="30" width="160" height="30" as="geometry"/>
                </mxCell>
                <mxCell id="7" value="lifeTime:float&lt;span style=&quot;white-space: pre;&quot;&gt;&#9;&lt;/span&gt;" style="text;strokeColor=none;fillColor=#1D1D1D;align=left;verticalAlign=middle;spacingLeft=4;spacingRight=4;overflow=hidden;points=[[0,0.5],[1,0.5]];portConstraint=eastwest;rotatable=0;whiteSpace=wrap;html=1;" parent="5" vertex="1">
                    <mxGeometry y="60" width="160" height="30" as="geometry"/>
                </mxCell>
                <mxCell id="8" value="&lt;p style=&quot;line-height: 40%;&quot;&gt;&lt;font style=&quot;font-size: 17px;&quot;&gt;.&lt;br&gt;.&lt;br&gt;.&lt;/font&gt;&lt;/p&gt;" style="text;strokeColor=none;fillColor=#1D1D1D;align=left;verticalAlign=middle;spacingLeft=4;spacingRight=4;overflow=hidden;points=[[0,0.5],[1,0.5]];portConstraint=eastwest;rotatable=0;whiteSpace=wrap;html=1;" parent="5" vertex="1">
                    <mxGeometry y="90" width="160" height="60" as="geometry"/>
                </mxCell>
                <mxCell id="27" value="&lt;h1 style=&quot;&quot;&gt;&lt;font style=&quot;font-size: 12px;&quot;&gt;This class has the main functionality of a specific particle system&lt;/font&gt;&lt;/h1&gt;" style="text;html=1;strokeColor=none;fillColor=none;spacing=5;spacingTop=-20;whiteSpace=wrap;overflow=hidden;rounded=0;" parent="20" vertex="1">
                    <mxGeometry x="10" y="310" width="400" height="40" as="geometry"/>
                </mxCell>
                <mxCell id="28" value="methods" style="swimlane;fontStyle=0;childLayout=stackLayout;horizontal=1;startSize=30;horizontalStack=0;resizeParent=1;resizeParentMax=0;resizeLast=0;collapsible=1;marginBottom=0;whiteSpace=wrap;html=1;fillColor=#1D1D1D;" parent="20" vertex="1">
                    <mxGeometry x="10" y="370" width="160" height="210" as="geometry"/>
                </mxCell>
                <mxCell id="29" value="&lt;div style=&quot;color: rgb(212, 212, 212); background-color: rgb(21, 21, 21); font-family: Consolas, &amp;quot;Courier New&amp;quot;, monospace; font-size: 14px; line-height: 19px;&quot;&gt;&lt;span style=&quot;color: #17daf0;&quot;&gt;Update&lt;/span&gt;&lt;/div&gt;" style="text;strokeColor=none;fillColor=#1D1D1D;align=left;verticalAlign=middle;spacingLeft=4;spacingRight=4;overflow=hidden;points=[[0,0.5],[1,0.5]];portConstraint=eastwest;rotatable=0;whiteSpace=wrap;html=1;" parent="28" vertex="1">
                    <mxGeometry y="30" width="160" height="30" as="geometry"/>
                </mxCell>
                <mxCell id="30" value="&lt;div style=&quot;color: rgb(212, 212, 212); background-color: rgb(21, 21, 21); font-family: Consolas, &amp;quot;Courier New&amp;quot;, monospace; font-size: 14px; line-height: 19px;&quot;&gt;&lt;span style=&quot;color: #17daf0;&quot;&gt;Create&lt;/span&gt;&lt;/div&gt;" style="text;strokeColor=none;fillColor=#1D1D1D;align=left;verticalAlign=middle;spacingLeft=4;spacingRight=4;overflow=hidden;points=[[0,0.5],[1,0.5]];portConstraint=eastwest;rotatable=0;whiteSpace=wrap;html=1;" parent="28" vertex="1">
                    <mxGeometry y="60" width="160" height="30" as="geometry"/>
                </mxCell>
                <mxCell id="32" value="&lt;div style=&quot;color: rgb(212, 212, 212); background-color: rgb(21, 21, 21); font-family: Consolas, &amp;quot;Courier New&amp;quot;, monospace; font-size: 14px; line-height: 19px;&quot;&gt;&lt;div style=&quot;line-height: 19px;&quot;&gt;&lt;span style=&quot;color: #17daf0;&quot;&gt;SetPos&lt;/span&gt;&lt;/div&gt;&lt;/div&gt;" style="text;strokeColor=none;fillColor=#1D1D1D;align=left;verticalAlign=middle;spacingLeft=4;spacingRight=4;overflow=hidden;points=[[0,0.5],[1,0.5]];portConstraint=eastwest;rotatable=0;whiteSpace=wrap;html=1;" parent="28" vertex="1">
                    <mxGeometry y="90" width="160" height="30" as="geometry"/>
                </mxCell>
                <mxCell id="53" value="&lt;div style=&quot;color: rgb(212, 212, 212); background-color: rgb(21, 21, 21); font-family: Consolas, &amp;quot;Courier New&amp;quot;, monospace; font-size: 14px; line-height: 19px;&quot;&gt;&lt;div style=&quot;line-height: 19px;&quot;&gt;&lt;div style=&quot;line-height: 19px;&quot;&gt;&lt;span style=&quot;color: #17daf0;&quot;&gt;Move&lt;/span&gt;&lt;/div&gt;&lt;/div&gt;&lt;/div&gt;" style="text;strokeColor=none;fillColor=#1D1D1D;align=left;verticalAlign=middle;spacingLeft=4;spacingRight=4;overflow=hidden;points=[[0,0.5],[1,0.5]];portConstraint=eastwest;rotatable=0;whiteSpace=wrap;html=1;" parent="28" vertex="1">
                    <mxGeometry y="120" width="160" height="30" as="geometry"/>
                </mxCell>
                <mxCell id="54" value="&lt;p style=&quot;line-height: 40%;&quot;&gt;&lt;font style=&quot;font-size: 17px;&quot;&gt;.&lt;br&gt;.&lt;br&gt;.&lt;/font&gt;&lt;/p&gt;" style="text;strokeColor=none;fillColor=#1D1D1D;align=left;verticalAlign=middle;spacingLeft=4;spacingRight=4;overflow=hidden;points=[[0,0.5],[1,0.5]];portConstraint=eastwest;rotatable=0;whiteSpace=wrap;html=1;" parent="28" vertex="1">
                    <mxGeometry y="150" width="160" height="60" as="geometry"/>
                </mxCell>
                <mxCell id="3" value="&lt;h1&gt;Particle System&lt;/h1&gt;" style="text;html=1;strokeColor=none;fillColor=none;spacing=5;spacingTop=-20;whiteSpace=wrap;overflow=hidden;rounded=0;" parent="14" vertex="1">
                    <mxGeometry x="215" y="20" width="190" height="50" as="geometry"/>
                </mxCell>
                <mxCell id="26" value="&lt;h1&gt;Usage&lt;/h1&gt;&lt;p&gt;There is a&amp;nbsp; ParticleSystem initialization, where a local scoped class object:ParticleSystem is created(local to the translation unit of the file Particles.js). Ofcourse the access to the particle system object is global.&lt;/p&gt;&lt;p&gt;Example: We create a function CreateParticleSystem() in Ball.js, for the particles of the ball's tail. So the only file that has access to this particle system is the Ball.js file.&lt;/p&gt;&lt;p&gt;The update of the particles of a particle system is:&lt;/p&gt;&lt;p&gt;&lt;span style=&quot;white-space: pre;&quot;&gt;&#9;&lt;/span&gt;- Loop through all particles&lt;br&gt;&lt;/p&gt;&lt;p&gt;&lt;span style=&quot;white-space: pre;&quot;&gt;&#9;&lt;/span&gt;- If particle is alive and the life time has expired&lt;br&gt;&lt;/p&gt;&lt;p&gt;&lt;span style=&quot;white-space: pre;&quot;&gt;&#9;&lt;/span&gt;&lt;span style=&quot;white-space: pre;&quot;&gt;&#9;&lt;/span&gt;Set is alive to false&lt;br&gt;&lt;/p&gt;&lt;p&gt;&lt;span style=&quot;white-space: pre;&quot;&gt;&#9;&lt;/span&gt;- Else&lt;/p&gt;&lt;p&gt;&amp;nbsp;&lt;br&gt;&lt;/p&gt;&lt;p&gt;&lt;span style=&quot;white-space: pre;&quot;&gt;&#9;&lt;/span&gt;&lt;span style=&quot;white-space: pre;&quot;&gt;&#9;&lt;/span&gt;&lt;br&gt;&lt;/p&gt;" style="text;html=1;strokeColor=none;fillColor=none;spacing=5;spacingTop=-20;whiteSpace=wrap;overflow=hidden;rounded=0;fontSize=17;" parent="14" vertex="1">
                    <mxGeometry x="20" y="60" width="610" height="590" as="geometry"/>
                </mxCell>
                <mxCell id="55" value="Meshes buffer" style="rounded=1;whiteSpace=wrap;html=1;" parent="1" vertex="1">
                    <mxGeometry x="1170" y="310" width="510" height="20" as="geometry"/>
                </mxCell>
                <mxCell id="57" style="edgeStyle=none;html=1;entryX=0.5;entryY=0;entryDx=0;entryDy=0;" parent="1" source="56" target="55" edge="1">
                    <mxGeometry relative="1" as="geometry"/>
                </mxCell>
                <mxCell id="56" value="scenes" style="ellipse;whiteSpace=wrap;html=1;fillColor=#008a00;fontColor=#ffffff;strokeColor=#005700;" parent="1" vertex="1">
                    <mxGeometry x="1227" y="120" width="120" height="80" as="geometry"/>
                </mxCell>
                <mxCell id="59" style="edgeStyle=none;html=1;entryX=0.5;entryY=0;entryDx=0;entryDy=0;" parent="1" source="58" target="55" edge="1">
                    <mxGeometry relative="1" as="geometry">
                        <mxPoint x="1410.0000000000005" y="280.0000000000001" as="targetPoint"/>
                    </mxGeometry>
                </mxCell>
                <mxCell id="58" value="classes&amp;nbsp;&lt;br&gt;of&lt;br&gt;Meshes" style="ellipse;whiteSpace=wrap;html=1;fillColor=#008a00;fontColor=#ffffff;strokeColor=#005700;" parent="1" vertex="1">
                    <mxGeometry x="1365" y="70" width="120" height="80" as="geometry"/>
                </mxCell>
                <mxCell id="61" style="edgeStyle=none;html=1;entryX=0.5;entryY=0;entryDx=0;entryDy=0;" parent="1" source="60" target="55" edge="1">
                    <mxGeometry relative="1" as="geometry"/>
                </mxCell>
                <mxCell id="60" value="VertexBuffers" style="ellipse;whiteSpace=wrap;html=1;fillColor=#008a00;fontColor=#ffffff;strokeColor=#005700;" parent="1" vertex="1">
                    <mxGeometry x="1520" y="120" width="120" height="80" as="geometry"/>
                </mxCell>
                <mxCell id="72" style="edgeStyle=none;html=1;entryX=0.5;entryY=0;entryDx=0;entryDy=0;" parent="1" source="62" target="68" edge="1">
                    <mxGeometry relative="1" as="geometry"/>
                </mxCell>
                <mxCell id="104" style="edgeStyle=none;html=1;exitX=0.5;exitY=0;exitDx=0;exitDy=0;fontSize=20;entryX=0.5;entryY=1;entryDx=0;entryDy=0;" parent="1" source="62" target="55" edge="1">
                    <mxGeometry relative="1" as="geometry"/>
                </mxCell>
                <mxCell id="62" value="Geometry" style="ellipse;whiteSpace=wrap;html=1;fillColor=#008a00;fontColor=#ffffff;strokeColor=#005700;" parent="1" vertex="1">
                    <mxGeometry x="1235" y="430" width="120" height="80" as="geometry"/>
                </mxCell>
                <mxCell id="77" style="edgeStyle=none;html=1;entryX=0.5;entryY=0;entryDx=0;entryDy=0;" parent="1" source="63" target="73" edge="1">
                    <mxGeometry relative="1" as="geometry"/>
                </mxCell>
                <mxCell id="105" style="edgeStyle=none;html=1;exitX=0.5;exitY=0;exitDx=0;exitDy=0;fontSize=20;entryX=0.5;entryY=1;entryDx=0;entryDy=0;" parent="1" source="63" target="55" edge="1">
                    <mxGeometry relative="1" as="geometry">
                        <mxPoint x="1424.8947368421054" y="330" as="targetPoint"/>
                    </mxGeometry>
                </mxCell>
                <mxCell id="63" value="Material" style="ellipse;whiteSpace=wrap;html=1;fillColor=#008a00;fontColor=#ffffff;strokeColor=#005700;" parent="1" vertex="1">
                    <mxGeometry x="1365" y="430" width="120" height="80" as="geometry"/>
                </mxCell>
                <mxCell id="82" style="edgeStyle=none;html=1;entryX=0.5;entryY=0;entryDx=0;entryDy=0;" parent="1" source="64" target="78" edge="1">
                    <mxGeometry relative="1" as="geometry"/>
                </mxCell>
                <mxCell id="106" style="edgeStyle=none;html=1;exitX=0.5;exitY=0;exitDx=0;exitDy=0;fontSize=20;entryX=0.5;entryY=1;entryDx=0;entryDy=0;" parent="1" source="64" target="55" edge="1">
                    <mxGeometry relative="1" as="geometry">
                        <mxPoint x="1420" y="330" as="targetPoint"/>
                    </mxGeometry>
                </mxCell>
                <mxCell id="64" value="GfxInfo" style="ellipse;whiteSpace=wrap;html=1;fillColor=#008a00;fontColor=#ffffff;strokeColor=#005700;" parent="1" vertex="1">
                    <mxGeometry x="1495" y="430" width="120" height="80" as="geometry"/>
                </mxCell>
                <mxCell id="68" value="List" style="swimlane;fontStyle=0;childLayout=stackLayout;horizontal=1;startSize=30;horizontalStack=0;resizeParent=1;resizeParentMax=0;resizeLast=0;collapsible=1;marginBottom=0;whiteSpace=wrap;html=1;" parent="1" vertex="1">
                    <mxGeometry x="1150" y="570" width="140" height="120" as="geometry"/>
                </mxCell>
                <mxCell id="69" value="Position" style="text;align=left;verticalAlign=middle;spacingLeft=4;spacingRight=4;overflow=hidden;points=[[0,0.5],[1,0.5]];portConstraint=eastwest;rotatable=0;whiteSpace=wrap;html=1;fillColor=default;" parent="68" vertex="1">
                    <mxGeometry y="30" width="140" height="30" as="geometry"/>
                </mxCell>
                <mxCell id="70" value="WorldPosition" style="text;strokeColor=none;fillColor=default;align=left;verticalAlign=middle;spacingLeft=4;spacingRight=4;overflow=hidden;points=[[0,0.5],[1,0.5]];portConstraint=eastwest;rotatable=0;whiteSpace=wrap;html=1;" parent="68" vertex="1">
                    <mxGeometry y="60" width="140" height="30" as="geometry"/>
                </mxCell>
                <mxCell id="71" value="Dimentions" style="text;strokeColor=none;fillColor=default;align=left;verticalAlign=middle;spacingLeft=4;spacingRight=4;overflow=hidden;points=[[0,0.5],[1,0.5]];portConstraint=eastwest;rotatable=0;whiteSpace=wrap;html=1;" parent="68" vertex="1">
                    <mxGeometry y="90" width="140" height="30" as="geometry"/>
                </mxCell>
                <mxCell id="73" value="List" style="swimlane;fontStyle=0;childLayout=stackLayout;horizontal=1;startSize=30;horizontalStack=0;resizeParent=1;resizeParentMax=0;resizeLast=0;collapsible=1;marginBottom=0;whiteSpace=wrap;html=1;" parent="1" vertex="1">
                    <mxGeometry x="1354" y="560" width="140" height="120" as="geometry"/>
                </mxCell>
                <mxCell id="74" value="Color" style="text;align=left;verticalAlign=middle;spacingLeft=4;spacingRight=4;overflow=hidden;points=[[0,0.5],[1,0.5]];portConstraint=eastwest;rotatable=0;whiteSpace=wrap;html=1;fillColor=default;" parent="73" vertex="1">
                    <mxGeometry y="30" width="140" height="30" as="geometry"/>
                </mxCell>
                <mxCell id="75" value="TexCoords" style="text;strokeColor=none;fillColor=default;align=left;verticalAlign=middle;spacingLeft=4;spacingRight=4;overflow=hidden;points=[[0,0.5],[1,0.5]];portConstraint=eastwest;rotatable=0;whiteSpace=wrap;html=1;" parent="73" vertex="1">
                    <mxGeometry y="60" width="140" height="30" as="geometry"/>
                </mxCell>
                <mxCell id="76" value="" style="text;strokeColor=none;fillColor=default;align=left;verticalAlign=middle;spacingLeft=4;spacingRight=4;overflow=hidden;points=[[0,0.5],[1,0.5]];portConstraint=eastwest;rotatable=0;whiteSpace=wrap;html=1;" parent="73" vertex="1">
                    <mxGeometry y="90" width="140" height="30" as="geometry"/>
                </mxCell>
                <mxCell id="78" value="List" style="swimlane;fontStyle=0;childLayout=stackLayout;horizontal=1;startSize=30;horizontalStack=0;resizeParent=1;resizeParentMax=0;resizeLast=0;collapsible=1;marginBottom=0;whiteSpace=wrap;html=1;" parent="1" vertex="1">
                    <mxGeometry x="1520" y="560" width="140" height="120" as="geometry"/>
                </mxCell>
                <mxCell id="79" value="Program Info" style="text;align=left;verticalAlign=middle;spacingLeft=4;spacingRight=4;overflow=hidden;points=[[0,0.5],[1,0.5]];portConstraint=eastwest;rotatable=0;whiteSpace=wrap;html=1;fillColor=default;" parent="78" vertex="1">
                    <mxGeometry y="30" width="140" height="30" as="geometry"/>
                </mxCell>
                <mxCell id="80" value="Vertexbuffer Info" style="text;strokeColor=none;fillColor=default;align=left;verticalAlign=middle;spacingLeft=4;spacingRight=4;overflow=hidden;points=[[0,0.5],[1,0.5]];portConstraint=eastwest;rotatable=0;whiteSpace=wrap;html=1;" parent="78" vertex="1">
                    <mxGeometry y="60" width="140" height="30" as="geometry"/>
                </mxCell>
                <mxCell id="81" value="Indexbuffer Info" style="text;strokeColor=none;fillColor=default;align=left;verticalAlign=middle;spacingLeft=4;spacingRight=4;overflow=hidden;points=[[0,0.5],[1,0.5]];portConstraint=eastwest;rotatable=0;whiteSpace=wrap;html=1;" parent="78" vertex="1">
                    <mxGeometry y="90" width="140" height="30" as="geometry"/>
                </mxCell>
                <mxCell id="99" value="" style="whiteSpace=wrap;html=1;aspect=fixed;fillColor=#6B6666;container=1;recursiveResize=0;" parent="1" vertex="1">
                    <mxGeometry x="1860" y="290" width="440" height="550" as="geometry">
                        <mxRectangle x="2250" y="100" width="50" height="40" as="alternateBounds"/>
                    </mxGeometry>
                </mxCell>
                <mxCell id="100" value="&lt;font style=&quot;font-size: 20px;&quot;&gt;Graphics&lt;/font&gt;" style="text;html=1;strokeColor=none;fillColor=none;align=center;verticalAlign=middle;whiteSpace=wrap;rounded=0;" parent="99" vertex="1">
                    <mxGeometry x="30.00344827586207" y="6.995862068965515" width="82.75862068965516" height="33.103448275862064" as="geometry"/>
                </mxCell>
                <mxCell id="90" value="VertexBuffer" style="ellipse;whiteSpace=wrap;html=1;fillColor=#008a00;fontColor=#ffffff;strokeColor=#005700;" parent="99" vertex="1">
                    <mxGeometry x="319.99517241379306" y="167.9306896551724" width="99.31034482758619" height="66.20689655172413" as="geometry"/>
                </mxCell>
                <mxCell id="91" value="Variables" style="swimlane;fontStyle=0;childLayout=stackLayout;horizontal=1;startSize=17;horizontalStack=0;resizeParent=1;resizeParentMax=0;resizeLast=0;collapsible=1;marginBottom=0;whiteSpace=wrap;html=1;fillColor=#6B6666;" parent="99" vertex="1" collapsed="1">
                    <mxGeometry x="319.9955172413793" y="267.69103448275854" width="90" height="30" as="geometry">
                        <mxRectangle x="412.5855172413793" y="149.65103448275855" width="140.69" height="290" as="alternateBounds"/>
                    </mxGeometry>
                </mxCell>
                <mxCell id="92" value="&lt;div style=&quot;background-color: rgb(21, 21, 21); font-family: Consolas, &amp;quot;Courier New&amp;quot;, monospace; font-size: 14px; line-height: 19px;&quot;&gt;&lt;div style=&quot;line-height: 19px;&quot;&gt;&lt;div style=&quot;&quot;&gt;&lt;span style=&quot;color: rgb(255, 255, 255);&quot;&gt;sceneIdx&lt;/span&gt; &lt;span style=&quot;color: rgb(212, 212, 212);&quot;&gt;=&lt;/span&gt;&lt;font color=&quot;#cccccc&quot;&gt;&amp;nbsp;&lt;/font&gt;&lt;span style=&quot;color: rgb(219, 178, 15);&quot;&gt;INT_NULL&lt;/span&gt;&lt;font color=&quot;#cccccc&quot;&gt;;&lt;/font&gt;&lt;/div&gt;&lt;div style=&quot;color: rgb(204, 204, 204);&quot;&gt;&lt;span style=&quot;color: rgb(255, 255, 255);&quot;&gt;meshes&lt;/span&gt; &lt;span style=&quot;color: rgb(212, 212, 212);&quot;&gt;=&lt;/span&gt; [];&amp;nbsp;&lt;br&gt;&lt;/div&gt;&lt;div style=&quot;color: rgb(204, 204, 204);&quot;&gt;&lt;span style=&quot;color: #ffffff;&quot;&gt;tboId&lt;/span&gt; &lt;span style=&quot;color: #d4d4d4;&quot;&gt;=&lt;/span&gt; &lt;span style=&quot;color: #dbb20f;&quot;&gt;INT_NULL&lt;/span&gt;;&amp;nbsp;&lt;/div&gt;&lt;div style=&quot;color: rgb(204, 204, 204);&quot;&gt;&lt;span style=&quot;color: #ffffff;&quot;&gt;texIdx&lt;/span&gt; &lt;span style=&quot;color: #d4d4d4;&quot;&gt;=&lt;/span&gt; &lt;span style=&quot;color: #dbb20f;&quot;&gt;INT_NULL&lt;/span&gt;;&amp;nbsp;&amp;nbsp;&lt;/div&gt;&lt;div style=&quot;color: rgb(204, 204, 204);&quot;&gt;&lt;span style=&quot;color: #ffffff;&quot;&gt;scissorBox&lt;/span&gt; &lt;span style=&quot;color: #d4d4d4;&quot;&gt;=&lt;/span&gt; [];&lt;/div&gt;&lt;div style=&quot;color: rgb(204, 204, 204);&quot;&gt;&lt;span style=&quot;color: #ffffff;&quot;&gt;show&lt;/span&gt; &lt;span style=&quot;color: #d4d4d4;&quot;&gt;=&lt;/span&gt; &lt;span style=&quot;color: #00b8fb;&quot;&gt;true&lt;/span&gt;;&lt;/div&gt;&lt;div style=&quot;color: rgb(204, 204, 204);&quot;&gt;&lt;span style=&quot;color: rgb(255, 255, 255);&quot;&gt;hasChanged&lt;/span&gt; &lt;span style=&quot;color: rgb(212, 212, 212);&quot;&gt;=&lt;/span&gt; &lt;span style=&quot;color: rgb(0, 184, 251);&quot;&gt;false&lt;/span&gt;;&lt;br&gt;&lt;/div&gt;&lt;div style=&quot;color: rgb(204, 204, 204);&quot;&gt;&lt;span style=&quot;color: #ffffff;&quot;&gt;hasScissorBox&lt;/span&gt; &lt;span style=&quot;color: #d4d4d4;&quot;&gt;=&lt;/span&gt; &lt;span style=&quot;color: #00b8fb;&quot;&gt;false&lt;/span&gt;;&lt;/div&gt;&lt;/div&gt;&lt;/div&gt;" style="text;align=left;verticalAlign=middle;spacingLeft=4;spacingRight=4;overflow=hidden;points=[[0,0.5],[1,0.5]];portConstraint=eastwest;rotatable=0;whiteSpace=wrap;html=1;fillColor=default;" parent="91" vertex="1">
                    <mxGeometry y="30" width="140.69" height="260" as="geometry"/>
                </mxCell>
                <mxCell id="89" style="edgeStyle=none;html=1;entryX=0.5;entryY=0;entryDx=0;entryDy=0;" parent="99" source="90" target="91" edge="1">
                    <mxGeometry relative="1" as="geometry"/>
                </mxCell>
                <mxCell id="95" value="IndexBuffer" style="ellipse;whiteSpace=wrap;html=1;fillColor=#008a00;fontColor=#ffffff;strokeColor=#005700;" parent="99" vertex="1">
                    <mxGeometry x="319.99551724137933" y="7.000689655172383" width="99.31034482758619" height="66.20689655172413" as="geometry"/>
                </mxCell>
                <mxCell id="96" value="Variables" style="swimlane;fontStyle=0;childLayout=stackLayout;horizontal=1;startSize=30;horizontalStack=0;resizeParent=1;resizeParentMax=0;resizeLast=0;collapsible=1;marginBottom=0;whiteSpace=wrap;html=1;fillColor=#6B6666;" parent="99" vertex="1" collapsed="1">
                    <mxGeometry x="320" y="110" width="90" height="30" as="geometry">
                        <mxRectangle x="320" y="110" width="140.69" height="79.6551724137931" as="alternateBounds"/>
                    </mxGeometry>
                </mxCell>
                <mxCell id="97" value="&lt;div style=&quot;background-color: rgb(21, 21, 21); font-family: Consolas, &amp;quot;Courier New&amp;quot;, monospace; font-size: 14px; line-height: 19px;&quot;&gt;&lt;div style=&quot;line-height: 19px;&quot;&gt;&lt;div style=&quot;&quot;&gt;&lt;br&gt;&lt;/div&gt;&lt;/div&gt;&lt;/div&gt;" style="text;align=left;verticalAlign=middle;spacingLeft=4;spacingRight=4;overflow=hidden;points=[[0,0.5],[1,0.5]];portConstraint=eastwest;rotatable=0;whiteSpace=wrap;html=1;fillColor=default;" parent="96" vertex="1">
                    <mxGeometry y="30" width="140.69" height="49.655172413793096" as="geometry"/>
                </mxCell>
                <mxCell id="94" style="edgeStyle=none;html=1;entryX=0.5;entryY=0;entryDx=0;entryDy=0;" parent="99" source="95" target="96" edge="1">
                    <mxGeometry relative="1" as="geometry"/>
                </mxCell>
                <mxCell id="102" style="edgeStyle=none;html=1;exitX=1;exitY=0.5;exitDx=0;exitDy=0;entryX=0;entryY=0.5;entryDx=0;entryDy=0;fontSize=20;" parent="99" source="83" target="95" edge="1">
                    <mxGeometry relative="1" as="geometry"/>
                </mxCell>
                <mxCell id="103" style="edgeStyle=none;html=1;exitX=1;exitY=0.5;exitDx=0;exitDy=0;entryX=0;entryY=0.5;entryDx=0;entryDy=0;fontSize=20;" parent="99" source="83" target="90" edge="1">
                    <mxGeometry relative="1" as="geometry"/>
                </mxCell>
                <mxCell id="83" value="AttributeBuffer" style="ellipse;whiteSpace=wrap;html=1;fillColor=#008a00;fontColor=#ffffff;strokeColor=#005700;" parent="99" vertex="1">
                    <mxGeometry x="55.34517241379308" y="56.99931034482742" width="99.31034482758619" height="66.20689655172413" as="geometry"/>
                </mxCell>
                <mxCell id="84" value="Variables" style="swimlane;fontStyle=0;childLayout=stackLayout;horizontal=1;startSize=30;horizontalStack=0;resizeParent=1;resizeParentMax=0;resizeLast=0;collapsible=1;marginBottom=0;whiteSpace=wrap;html=1;fillColor=#6B6666;" parent="99" vertex="1" collapsed="1">
                    <mxGeometry x="20" y="150.1" width="74.48275862068964" height="24.827586206896548" as="geometry">
                        <mxRectangle x="20" y="150.1" width="170" height="250" as="alternateBounds"/>
                    </mxGeometry>
                </mxCell>
                <mxCell id="85" value="&lt;div style=&quot;color: rgb(204, 204, 204); background-color: rgb(21, 21, 21); font-family: Consolas, &amp;quot;Courier New&amp;quot;, monospace; font-size: 14px; line-height: 19px;&quot;&gt;&lt;div&gt;&lt;span style=&quot;color: #ffffff;&quot;&gt;name&lt;/span&gt; &lt;span style=&quot;color: #d4d4d4;&quot;&gt;=&lt;/span&gt; &lt;span style=&quot;color: #e13036;&quot;&gt;''&lt;/span&gt;;&lt;/div&gt;&lt;div&gt;&lt;span style=&quot;color: #ffffff;&quot;&gt;data&lt;/span&gt; &lt;span style=&quot;color: #d4d4d4;&quot;&gt;=&lt;/span&gt; [];&lt;/div&gt;&lt;div&gt;&lt;span style=&quot;color: #ffffff;&quot;&gt;buffer&lt;/span&gt; &lt;span style=&quot;color: #d4d4d4;&quot;&gt;=&lt;/span&gt; &lt;span style=&quot;color: #00b8fb;&quot;&gt;null&lt;/span&gt;;&lt;/div&gt;&lt;div&gt;&lt;span style=&quot;color: #ffffff;&quot;&gt;idx&lt;/span&gt; &lt;span style=&quot;color: #d4d4d4;&quot;&gt;=&lt;/span&gt; &lt;span style=&quot;color: #dbb20f;&quot;&gt;INT_NULL&lt;/span&gt;;&lt;/div&gt;&lt;div&gt;&lt;span style=&quot;color: #ffffff;&quot;&gt;start&lt;/span&gt; &lt;span style=&quot;color: #d4d4d4;&quot;&gt;=&lt;/span&gt; &lt;span style=&quot;color: #dbcd0f;&quot;&gt;0&lt;/span&gt;;&lt;/div&gt;&lt;div&gt;&lt;span style=&quot;color: #ffffff;&quot;&gt;count&lt;/span&gt; &lt;span style=&quot;color: #d4d4d4;&quot;&gt;=&lt;/span&gt; &lt;span style=&quot;color: #dbcd0f;&quot;&gt;0&lt;/span&gt;;&lt;/div&gt;&lt;div&gt;&lt;span style=&quot;color: #ffffff;&quot;&gt;size&lt;/span&gt; &lt;span style=&quot;color: #d4d4d4;&quot;&gt;=&lt;/span&gt; &lt;span style=&quot;color: #dbcd0f;&quot;&gt;0;&lt;/span&gt;&lt;/div&gt;&lt;div&gt;&lt;span style=&quot;color: #ffffff;&quot;&gt;vCount&lt;/span&gt; &lt;span style=&quot;color: #d4d4d4;&quot;&gt;=&lt;/span&gt; &lt;span style=&quot;color: #dbcd0f;&quot;&gt;0&lt;/span&gt;;&lt;/div&gt;&lt;div&gt;&lt;span style=&quot;color: #ffffff;&quot;&gt;vao&lt;/span&gt; &lt;span style=&quot;color: #d4d4d4;&quot;&gt;=&lt;/span&gt; &lt;span style=&quot;color: #00b8fb;&quot;&gt;null&lt;/span&gt;;&lt;/div&gt;&lt;div&gt;&lt;span style=&quot;color: #ffffff;&quot;&gt;iboId&lt;/span&gt; &lt;span style=&quot;color: #d4d4d4;&quot;&gt;=&lt;/span&gt; &lt;span style=&quot;color: #dbb20f;&quot;&gt;INT_NULL&lt;/span&gt;;&lt;/div&gt;&lt;div&gt;&lt;span style=&quot;color: #ffffff;&quot;&gt;needsUpdate&lt;/span&gt; &lt;span style=&quot;color: #d4d4d4;&quot;&gt;=&lt;/span&gt; &lt;span style=&quot;color: #00b8fb;&quot;&gt;false&lt;/span&gt;;&lt;/div&gt;&lt;/div&gt;" style="text;align=left;verticalAlign=middle;spacingLeft=4;spacingRight=4;overflow=hidden;points=[[0,0.5],[1,0.5]];portConstraint=eastwest;rotatable=0;whiteSpace=wrap;html=1;fillColor=default;" parent="84" vertex="1">
                    <mxGeometry y="30" width="170" height="220" as="geometry"/>
                </mxCell>
                <mxCell id="88" style="edgeStyle=none;html=1;entryX=0.5;entryY=0;entryDx=0;entryDy=0;" parent="99" source="83" target="84" edge="1">
                    <mxGeometry relative="1" as="geometry"/>
                </mxCell>
                <mxCell id="107" value="Programs" style="ellipse;whiteSpace=wrap;html=1;fillColor=#008a00;fontColor=#ffffff;strokeColor=#005700;" parent="1" vertex="1">
                    <mxGeometry x="1960" y="40" width="120" height="80" as="geometry"/>
                </mxCell>
                <mxCell id="112" value="Create Camera();&lt;br&gt;Create Renderer();&lt;br&gt;CreateGfxContext();&lt;br&gt;&lt;br&gt;CreateBox();&lt;br&gt;Renderer.Add(box);&lt;br&gt;" style="shape=process;whiteSpace=wrap;html=1;backgroundOutline=1;fontSize=20;fillColor=#6B6666;" parent="1" vertex="1">
                    <mxGeometry x="1590" y="-270" width="325" height="320" as="geometry"/>
                </mxCell>
                <mxCell id="118" style="edgeStyle=none;html=1;exitX=0.5;exitY=0;exitDx=0;exitDy=0;entryX=0.5;entryY=1;entryDx=0;entryDy=0;fontSize=20;" parent="1" source="113" target="115" edge="1">
                    <mxGeometry relative="1" as="geometry"/>
                </mxCell>
                <mxCell id="119" style="edgeStyle=none;html=1;exitX=0.5;exitY=0;exitDx=0;exitDy=0;entryX=0.5;entryY=1;entryDx=0;entryDy=0;fontSize=20;" parent="1" source="113" target="116" edge="1">
                    <mxGeometry relative="1" as="geometry"/>
                </mxCell>
                <mxCell id="120" style="edgeStyle=none;html=1;exitX=0.5;exitY=0;exitDx=0;exitDy=0;entryX=0.5;entryY=1;entryDx=0;entryDy=0;fontSize=20;" parent="1" source="113" target="117" edge="1">
                    <mxGeometry relative="1" as="geometry"/>
                </mxCell>
                <mxCell id="113" value="Mesh" style="ellipse;whiteSpace=wrap;html=1;fontSize=20;fillColor=#008a00;fontColor=#ffffff;strokeColor=#005700;" parent="1" vertex="1">
                    <mxGeometry x="1350" y="1110" width="120" height="80" as="geometry"/>
                </mxCell>
                <mxCell id="115" value="&lt;font style=&quot;font-size: 20px;&quot;&gt;Geometry&lt;/font&gt;" style="ellipse;whiteSpace=wrap;html=1;fillColor=#008a00;fontColor=#ffffff;strokeColor=#005700;" parent="1" vertex="1">
                    <mxGeometry x="1220" y="930" width="120" height="80" as="geometry"/>
                </mxCell>
                <mxCell id="116" value="&lt;font style=&quot;font-size: 20px;&quot;&gt;Material&lt;/font&gt;" style="ellipse;whiteSpace=wrap;html=1;fillColor=#008a00;fontColor=#ffffff;strokeColor=#005700;" parent="1" vertex="1">
                    <mxGeometry x="1350" y="930" width="120" height="80" as="geometry"/>
                </mxCell>
                <mxCell id="117" value="&lt;font style=&quot;font-size: 20px;&quot;&gt;GfxInfo&lt;/font&gt;" style="ellipse;whiteSpace=wrap;html=1;fillColor=#008a00;fontColor=#ffffff;strokeColor=#005700;" parent="1" vertex="1">
                    <mxGeometry x="1480" y="930" width="120" height="80" as="geometry"/>
                </mxCell>
                <mxCell id="123" style="edgeStyle=none;html=1;exitX=0.5;exitY=0;exitDx=0;exitDy=0;entryX=0.5;entryY=1;entryDx=0;entryDy=0;fontSize=20;" parent="1" source="121" target="113" edge="1">
                    <mxGeometry relative="1" as="geometry"/>
                </mxCell>
                <mxCell id="121" value="Rect" style="ellipse;whiteSpace=wrap;html=1;fontSize=20;fillColor=#008a00;fontColor=#ffffff;strokeColor=#005700;" parent="1" vertex="1">
                    <mxGeometry x="1170" y="1285.56" width="111" height="77.22" as="geometry"/>
                </mxCell>
                <mxCell id="132" style="edgeStyle=none;html=1;exitX=0.5;exitY=0;exitDx=0;exitDy=0;entryX=0.5;entryY=1;entryDx=0;entryDy=0;fontSize=20;" parent="1" source="122" target="130" edge="1">
                    <mxGeometry relative="1" as="geometry"/>
                </mxCell>
                <mxCell id="133" style="edgeStyle=none;html=1;exitX=0.5;exitY=0;exitDx=0;exitDy=0;entryX=0.5;entryY=1;entryDx=0;entryDy=0;fontSize=20;" parent="1" source="122" target="121" edge="1">
                    <mxGeometry relative="1" as="geometry"/>
                </mxCell>
                <mxCell id="122" value="Ui" style="ellipse;whiteSpace=wrap;html=1;fontSize=20;fillColor=#008a00;fontColor=#ffffff;strokeColor=#005700;" parent="1" vertex="1">
                    <mxGeometry x="1310" y="1650" width="120" height="80" as="geometry"/>
                </mxCell>
                <mxCell id="134" style="edgeStyle=none;html=1;exitX=0.5;exitY=0;exitDx=0;exitDy=0;entryX=0.5;entryY=1;entryDx=0;entryDy=0;fontSize=20;" parent="1" source="124" target="121" edge="1">
                    <mxGeometry relative="1" as="geometry"/>
                </mxCell>
                <mxCell id="124" value="Circle" style="ellipse;whiteSpace=wrap;html=1;fontSize=20;fillColor=#008a00;fontColor=#ffffff;strokeColor=#005700;" parent="1" vertex="1">
                    <mxGeometry x="1040" y="1420" width="120" height="80" as="geometry"/>
                </mxCell>
                <mxCell id="128" style="edgeStyle=none;html=1;exitX=0.5;exitY=0;exitDx=0;exitDy=0;entryX=0.5;entryY=1;entryDx=0;entryDy=0;fontSize=20;" parent="1" source="125" target="113" edge="1">
                    <mxGeometry relative="1" as="geometry"/>
                </mxCell>
                <mxCell id="125" value="Box" style="ellipse;whiteSpace=wrap;html=1;fontSize=20;fillColor=#008a00;fontColor=#ffffff;strokeColor=#005700;" parent="1" vertex="1">
                    <mxGeometry x="1480" y="1282.78" width="120" height="80" as="geometry"/>
                </mxCell>
                <mxCell id="137" style="edgeStyle=none;html=1;exitX=0.5;exitY=0;exitDx=0;exitDy=0;entryX=0.5;entryY=1;entryDx=0;entryDy=0;fontSize=20;" parent="1" source="126" target="121" edge="1">
                    <mxGeometry relative="1" as="geometry"/>
                </mxCell>
                <mxCell id="126" value="Line" style="ellipse;whiteSpace=wrap;html=1;fontSize=20;fillColor=#008a00;fontColor=#ffffff;strokeColor=#005700;" parent="1" vertex="1">
                    <mxGeometry x="890" y="1400" width="120" height="80" as="geometry"/>
                </mxCell>
                <mxCell id="131" style="edgeStyle=none;html=1;exitX=0.5;exitY=0;exitDx=0;exitDy=0;entryX=0.5;entryY=1;entryDx=0;entryDy=0;fontSize=20;" parent="1" source="130" target="121" edge="1">
                    <mxGeometry relative="1" as="geometry"/>
                </mxCell>
                <mxCell id="130" value="Text" style="ellipse;whiteSpace=wrap;html=1;fontSize=20;fillColor=#008a00;fontColor=#ffffff;strokeColor=#005700;" parent="1" vertex="1">
                    <mxGeometry x="1150" y="1529.9999999999998" width="120" height="80" as="geometry"/>
                </mxCell>
                <mxCell id="136" style="edgeStyle=none;html=1;exitX=0.5;exitY=0;exitDx=0;exitDy=0;entryX=0.5;entryY=1;entryDx=0;entryDy=0;fontSize=20;" parent="1" source="135" target="113" edge="1">
                    <mxGeometry relative="1" as="geometry"/>
                </mxCell>
                <mxCell id="135" value="Spere" style="ellipse;whiteSpace=wrap;html=1;fontSize=20;fillColor=#008a00;fontColor=#ffffff;strokeColor=#005700;" parent="1" vertex="1">
                    <mxGeometry x="1640" y="1282.78" width="120" height="80" as="geometry"/>
                </mxCell>
                <mxCell id="139" style="edgeStyle=none;html=1;exitX=0;exitY=0.5;exitDx=0;exitDy=0;entryX=1;entryY=0.5;entryDx=0;entryDy=0;fontSize=20;" parent="1" source="138" target="113" edge="1">
                    <mxGeometry relative="1" as="geometry"/>
                </mxCell>
                <mxCell id="138" value="GlobalEngineMeshBuffer" style="ellipse;whiteSpace=wrap;html=1;fontSize=20;fillColor=#008a00;fontColor=#ffffff;strokeColor=#005700;" parent="1" vertex="1">
                    <mxGeometry x="2090" y="1120" width="270" height="77.22" as="geometry"/>
                </mxCell>
                <mxCell id="140" value="Scenes" style="ellipse;whiteSpace=wrap;html=1;fontSize=20;fillColor=#008a00;fontColor=#ffffff;strokeColor=#005700;" parent="1" vertex="1">
                    <mxGeometry x="2280" y="1400" width="120" height="80" as="geometry"/>
                </mxCell>
                <mxCell id="142" style="edgeStyle=none;html=1;exitX=0.5;exitY=0;exitDx=0;exitDy=0;entryX=0.5;entryY=1;entryDx=0;entryDy=0;fontSize=20;" parent="1" source="141" target="140" edge="1">
                    <mxGeometry relative="1" as="geometry"/>
                </mxCell>
                <mxCell id="141" value="Renderer" style="ellipse;whiteSpace=wrap;html=1;fontSize=20;fillColor=#008a00;fontColor=#ffffff;strokeColor=#005700;" parent="1" vertex="1">
                    <mxGeometry x="2260" y="1580" width="120" height="80" as="geometry"/>
                </mxCell>
                <mxCell id="149" value="GPU-Graphics" style="swimlane;whiteSpace=wrap;html=1;gradientColor=none;swimlaneFillColor=default;" vertex="1" parent="1">
                    <mxGeometry x="450" y="2090" width="240" height="260" as="geometry">
                        <mxRectangle x="1060" y="1830" width="140" height="30" as="alternateBounds"/>
                    </mxGeometry>
                </mxCell>
                <mxCell id="150" value="&lt;h1&gt;Input:&lt;/h1&gt;&lt;p style=&quot;line-height: 10%;&quot;&gt;shaderID,&lt;/p&gt;&lt;p style=&quot;line-height: 10%;&quot;&gt;&lt;br&gt;&lt;/p&gt;&lt;p style=&quot;line-height: 10%;&quot;&gt;class Mesh:&amp;nbsp;&lt;/p&gt;&lt;p style=&quot;line-height: 10%;&quot;&gt;&lt;span style=&quot;white-space: pre;&quot;&gt;&#9;&lt;/span&gt;color,&lt;/p&gt;&lt;p style=&quot;line-height: 10%;&quot;&gt;&lt;span style=&quot;white-space: pre;&quot;&gt;&#9;&lt;/span&gt;pos,&lt;br&gt;&lt;/p&gt;&lt;p style=&quot;line-height: 10%;&quot;&gt;&lt;span style=&quot;white-space: pre;&quot;&gt;&#9;&lt;/span&gt;wpos,&lt;/p&gt;&lt;p style=&quot;line-height: 10%;&quot;&gt;&lt;span style=&quot;white-space: pre;&quot;&gt;&#9;&lt;/span&gt;tex,&lt;/p&gt;&lt;p style=&quot;line-height: 10%;&quot;&gt;&lt;span style=&quot;white-space: pre;&quot;&gt;&#9;&lt;/span&gt;scale,&lt;/p&gt;&lt;p style=&quot;line-height: 0%;&quot;&gt;&lt;span style=&quot;white-space: pre;&quot;&gt;&#9;&lt;/span&gt;.&lt;/p&gt;&lt;p style=&quot;line-height: 0%;&quot;&gt;&lt;span style=&quot;white-space: pre;&quot;&gt;&#9;&lt;/span&gt;.&lt;/p&gt;&lt;p style=&quot;line-height: 0%;&quot;&gt;&lt;span style=&quot;white-space: pre;&quot;&gt;&#9;&lt;/span&gt;.&lt;/p&gt;&lt;p style=&quot;line-height: 0%;&quot;&gt;&lt;br&gt;&lt;/p&gt;" style="text;html=1;strokeColor=none;fillColor=none;spacing=5;spacingTop=-20;whiteSpace=wrap;overflow=hidden;rounded=0;" vertex="1" parent="149">
                    <mxGeometry x="20" y="40" width="190" height="210" as="geometry"/>
                </mxCell>
                <mxCell id="151" value="GPU-Graphics" style="swimlane;whiteSpace=wrap;html=1;gradientColor=none;swimlaneFillColor=default;" vertex="1" parent="1">
                    <mxGeometry x="730" y="2160" width="240" height="260" as="geometry">
                        <mxRectangle x="1060" y="1830" width="140" height="30" as="alternateBounds"/>
                    </mxGeometry>
                </mxCell>
                <mxCell id="152" value="&lt;h1&gt;Input:&lt;/h1&gt;&lt;p style=&quot;line-height: 10%;&quot;&gt;shaderID,&lt;/p&gt;&lt;p style=&quot;line-height: 10%;&quot;&gt;&lt;br&gt;&lt;/p&gt;&lt;p style=&quot;line-height: 10%;&quot;&gt;class Mesh:&amp;nbsp;&lt;/p&gt;&lt;p style=&quot;line-height: 10%;&quot;&gt;&lt;span style=&quot;white-space: pre;&quot;&gt;&#9;&lt;/span&gt;color,&lt;/p&gt;&lt;p style=&quot;line-height: 10%;&quot;&gt;&lt;span style=&quot;white-space: pre;&quot;&gt;&#9;&lt;/span&gt;pos,&lt;br&gt;&lt;/p&gt;&lt;p style=&quot;line-height: 10%;&quot;&gt;&lt;span style=&quot;white-space: pre;&quot;&gt;&#9;&lt;/span&gt;wpos,&lt;/p&gt;&lt;p style=&quot;line-height: 10%;&quot;&gt;&lt;span style=&quot;white-space: pre;&quot;&gt;&#9;&lt;/span&gt;tex,&lt;/p&gt;&lt;p style=&quot;line-height: 10%;&quot;&gt;&lt;span style=&quot;white-space: pre;&quot;&gt;&#9;&lt;/span&gt;scale,&lt;/p&gt;&lt;p style=&quot;line-height: 0%;&quot;&gt;&lt;span style=&quot;white-space: pre;&quot;&gt;&#9;&lt;/span&gt;.&lt;/p&gt;&lt;p style=&quot;line-height: 0%;&quot;&gt;&lt;span style=&quot;white-space: pre;&quot;&gt;&#9;&lt;/span&gt;.&lt;/p&gt;&lt;p style=&quot;line-height: 0%;&quot;&gt;&lt;span style=&quot;white-space: pre;&quot;&gt;&#9;&lt;/span&gt;.&lt;/p&gt;&lt;p style=&quot;line-height: 0%;&quot;&gt;&lt;br&gt;&lt;/p&gt;" style="text;html=1;strokeColor=none;fillColor=none;spacing=5;spacingTop=-20;whiteSpace=wrap;overflow=hidden;rounded=0;" vertex="1" parent="151">
                    <mxGeometry x="20" y="40" width="190" height="210" as="geometry"/>
                </mxCell>
                <mxCell id="154" value="&lt;font style=&quot;font-size: 26px;&quot;&gt;Engine&lt;/font&gt;" style="rounded=1;whiteSpace=wrap;html=1;fillColor=#647687;fontColor=#ffffff;strokeColor=#314354;container=1;recursiveResize=0;shadow=0;glass=0;verticalAlign=top;" vertex="1" parent="1">
                    <mxGeometry x="2060" y="2590" width="1650" height="2275" as="geometry"/>
                </mxCell>
                <mxCell id="155" value="&lt;font style=&quot;font-size: 26px;&quot;&gt;Graphics&lt;/font&gt;" style="rounded=1;whiteSpace=wrap;html=1;fillColor=#647687;fontColor=#ffffff;strokeColor=#314354;container=1;recursiveResize=0;shadow=0;glass=0;verticalAlign=top;movable=0;" vertex="1" parent="1">
                    <mxGeometry x="480" y="2600" width="890" height="1270" as="geometry"/>
                </mxCell>
                <mxCell id="170" value="&lt;font color=&quot;#ffffff&quot;&gt;&lt;span style=&quot;font-size: 20px;&quot;&gt;Shader Creation&lt;br&gt;Shader loading&lt;br&gt;&lt;/span&gt;&lt;/font&gt;" style="shape=hexagon;perimeter=hexagonPerimeter2;whiteSpace=wrap;html=1;fixedSize=1;shadow=0;glass=0;fontSize=26;fillColor=#f0a30a;fontColor=#000000;strokeColor=#BD7000;" vertex="1" parent="155">
                    <mxGeometry x="70" y="770" width="170" height="90" as="geometry"/>
                </mxCell>
                <mxCell id="283" value="Shader&lt;br&gt;Chunks" style="ellipse;whiteSpace=wrap;html=1;fontSize=20;fillColor=#008a00;fontColor=#ffffff;strokeColor=#005700;" vertex="1" parent="155">
                    <mxGeometry x="510" y="785" width="120" height="60" as="geometry"/>
                </mxCell>
                <mxCell id="284" style="edgeStyle=none;html=1;exitX=1;exitY=0.5;exitDx=0;exitDy=0;entryX=0;entryY=0.5;entryDx=0;entryDy=0;fontSize=18;" edge="1" parent="155" source="170" target="283">
                    <mxGeometry relative="1" as="geometry"/>
                </mxCell>
                <mxCell id="167" value="&lt;span style=&quot;color: rgb(255, 255, 255); font-size: 20px;&quot;&gt;Communication&lt;/span&gt;&lt;br style=&quot;color: rgb(255, 255, 255); font-size: 20px;&quot;&gt;&lt;span style=&quot;color: rgb(255, 255, 255); font-size: 20px;&quot;&gt;With&lt;/span&gt;&lt;br style=&quot;color: rgb(255, 255, 255); font-size: 20px;&quot;&gt;&lt;span style=&quot;color: rgb(255, 255, 255); font-size: 20px;&quot;&gt;Engine&lt;/span&gt;" style="shape=hexagon;perimeter=hexagonPerimeter2;whiteSpace=wrap;html=1;fixedSize=1;shadow=0;glass=0;fontSize=26;fillColor=#f0a30a;fontColor=#000000;strokeColor=#BD7000;" vertex="1" parent="155">
                    <mxGeometry x="520" y="600" width="170" height="90" as="geometry"/>
                </mxCell>
                <mxCell id="161" value="Class GfxInfo" style="ellipse;whiteSpace=wrap;html=1;fontSize=20;fillColor=#008a00;fontColor=#ffffff;strokeColor=#005700;" vertex="1" parent="155">
                    <mxGeometry x="742.25" y="590" width="120" height="60" as="geometry"/>
                </mxCell>
                <mxCell id="168" style="edgeStyle=none;html=1;exitX=1;exitY=0.5;exitDx=0;exitDy=0;entryX=0;entryY=0.5;entryDx=0;entryDy=0;fontSize=26;" edge="1" parent="155" source="167" target="161">
                    <mxGeometry relative="1" as="geometry"/>
                </mxCell>
                <mxCell id="244" style="edgeStyle=none;html=1;exitX=0;exitY=0.5;exitDx=0;exitDy=0;entryX=1;entryY=0.5;entryDx=0;entryDy=0;fontSize=26;" edge="1" parent="155" source="241" target="167">
                    <mxGeometry relative="1" as="geometry"/>
                </mxCell>
                <mxCell id="241" value="Initialize&lt;br&gt;Graphics" style="ellipse;whiteSpace=wrap;html=1;fontSize=20;fillColor=#008a00;fontColor=#ffffff;strokeColor=#005700;" vertex="1" parent="155">
                    <mxGeometry x="742.25" y="655" width="120" height="60" as="geometry"/>
                </mxCell>
                <mxCell id="157" value="&lt;font style=&quot;font-size: 26px;&quot;&gt;Application&lt;/font&gt;" style="rounded=1;whiteSpace=wrap;html=1;fillColor=#647687;fontColor=#ffffff;strokeColor=#314354;container=1;recursiveResize=0;shadow=0;glass=0;verticalAlign=top;" vertex="1" parent="1">
                    <mxGeometry x="1790" y="2150" width="380" height="370" as="geometry"/>
                </mxCell>
                <mxCell id="158" value="Mesh" style="ellipse;whiteSpace=wrap;html=1;fontSize=20;fillColor=#008a00;fontColor=#ffffff;strokeColor=#005700;" vertex="1" parent="157">
                    <mxGeometry x="80" y="70" width="80" height="60" as="geometry"/>
                </mxCell>
                <mxCell id="179" style="edgeStyle=none;html=1;exitX=1;exitY=0.5;exitDx=0;exitDy=0;entryX=0;entryY=0.5;entryDx=0;entryDy=0;fontSize=26;" edge="1" parent="1" source="171" target="178">
                    <mxGeometry relative="1" as="geometry"/>
                </mxCell>
                <mxCell id="180" style="edgeStyle=none;html=1;exitX=1;exitY=0.5;exitDx=0;exitDy=0;entryX=0;entryY=0.5;entryDx=0;entryDy=0;fontSize=26;" edge="1" parent="1" source="171" target="177">
                    <mxGeometry relative="1" as="geometry"/>
                </mxCell>
                <mxCell id="234" style="edgeStyle=none;html=1;exitX=0;exitY=0.5;exitDx=0;exitDy=0;entryX=1;entryY=0.5;entryDx=0;entryDy=0;fontSize=26;" edge="1" parent="1" source="171" target="184">
                    <mxGeometry relative="1" as="geometry"/>
                </mxCell>
                <mxCell id="171" value="&lt;font color=&quot;#ffffff&quot;&gt;&lt;span style=&quot;font-size: 20px;&quot;&gt;Renderer&lt;br&gt;&lt;/span&gt;&lt;/font&gt;" style="shape=hexagon;perimeter=hexagonPerimeter2;whiteSpace=wrap;html=1;fixedSize=1;shadow=0;glass=0;fontSize=26;fillColor=#f0a30a;fontColor=#000000;strokeColor=#BD7000;" vertex="1" parent="1">
                    <mxGeometry x="2060" y="3205" width="170" height="90" as="geometry"/>
                </mxCell>
                <mxCell id="189" style="edgeStyle=none;html=1;exitX=1;exitY=0.5;exitDx=0;exitDy=0;entryX=0;entryY=0.5;entryDx=0;entryDy=0;fontSize=26;" edge="1" parent="1" source="172" target="187">
                    <mxGeometry relative="1" as="geometry"/>
                </mxCell>
                <mxCell id="190" style="edgeStyle=none;html=1;exitX=1;exitY=0.5;exitDx=0;exitDy=0;entryX=0;entryY=0.5;entryDx=0;entryDy=0;fontSize=26;" edge="1" parent="1" source="172" target="188">
                    <mxGeometry relative="1" as="geometry"/>
                </mxCell>
                <mxCell id="172" value="&lt;font color=&quot;#ffffff&quot;&gt;&lt;span style=&quot;font-size: 20px;&quot;&gt;Drawbles&lt;br&gt;&lt;/span&gt;&lt;/font&gt;" style="shape=hexagon;perimeter=hexagonPerimeter2;whiteSpace=wrap;html=1;fixedSize=1;shadow=0;glass=0;fontSize=26;fillColor=#f0a30a;fontColor=#000000;strokeColor=#BD7000;" vertex="1" parent="1">
                    <mxGeometry x="2490" y="2870" width="170" height="90" as="geometry"/>
                </mxCell>
                <mxCell id="173" value="&lt;font color=&quot;#ffffff&quot;&gt;&lt;span style=&quot;font-size: 20px;&quot;&gt;Events&lt;br&gt;System&lt;br&gt;&lt;/span&gt;&lt;/font&gt;" style="shape=hexagon;perimeter=hexagonPerimeter2;whiteSpace=wrap;html=1;fixedSize=1;shadow=0;glass=0;fontSize=26;fillColor=#f0a30a;fontColor=#000000;strokeColor=#BD7000;" vertex="1" parent="1">
                    <mxGeometry x="2070" y="3763" width="170" height="90" as="geometry"/>
                </mxCell>
                <mxCell id="164" value="FontLoader" style="ellipse;whiteSpace=wrap;html=1;fontSize=20;fillColor=#008a00;fontColor=#ffffff;strokeColor=#005700;" vertex="1" parent="1">
                    <mxGeometry x="2330" y="3978" width="145" height="60" as="geometry"/>
                </mxCell>
                <mxCell id="175" style="edgeStyle=none;html=1;exitX=1;exitY=0.5;exitDx=0;exitDy=0;entryX=0;entryY=0.5;entryDx=0;entryDy=0;fontSize=26;" edge="1" parent="1" source="174" target="163">
                    <mxGeometry relative="1" as="geometry"/>
                </mxCell>
                <mxCell id="176" style="edgeStyle=none;html=1;exitX=1;exitY=0.5;exitDx=0;exitDy=0;entryX=0;entryY=0.5;entryDx=0;entryDy=0;fontSize=26;" edge="1" parent="1" source="174" target="164">
                    <mxGeometry relative="1" as="geometry"/>
                </mxCell>
                <mxCell id="204" style="edgeStyle=none;html=1;exitX=1;exitY=0.5;exitDx=0;exitDy=0;entryX=0;entryY=0.5;entryDx=0;entryDy=0;fontSize=26;" edge="1" parent="1" source="174" target="203">
                    <mxGeometry relative="1" as="geometry"/>
                </mxCell>
                <mxCell id="174" value="&lt;font color=&quot;#ffffff&quot;&gt;&lt;span style=&quot;font-size: 20px;&quot;&gt;Loaders&lt;br&gt;&lt;/span&gt;&lt;/font&gt;" style="shape=hexagon;perimeter=hexagonPerimeter2;whiteSpace=wrap;html=1;fixedSize=1;shadow=0;glass=0;fontSize=26;fillColor=#f0a30a;fontColor=#000000;strokeColor=#BD7000;" vertex="1" parent="1">
                    <mxGeometry x="2070" y="3963" width="170" height="90" as="geometry"/>
                </mxCell>
                <mxCell id="163" value="TextureLoader" style="ellipse;whiteSpace=wrap;html=1;fontSize=20;fillColor=#008a00;fontColor=#ffffff;strokeColor=#005700;" vertex="1" parent="1">
                    <mxGeometry x="2330" y="3918" width="145" height="60" as="geometry"/>
                </mxCell>
                <mxCell id="177" value="RenderQueue" style="ellipse;whiteSpace=wrap;html=1;fontSize=20;fillColor=#008a00;fontColor=#ffffff;strokeColor=#005700;" vertex="1" parent="1">
                    <mxGeometry x="2310" y="3245" width="145" height="60" as="geometry"/>
                </mxCell>
                <mxCell id="178" value="Camera" style="ellipse;whiteSpace=wrap;html=1;fontSize=20;fillColor=#008a00;fontColor=#ffffff;strokeColor=#005700;" vertex="1" parent="1">
                    <mxGeometry x="2310" y="3185" width="145" height="60" as="geometry"/>
                </mxCell>
                <mxCell id="181" value="&lt;font color=&quot;#ffffff&quot;&gt;&lt;span style=&quot;font-size: 20px;&quot;&gt;Particles&lt;br&gt;System&lt;br&gt;&lt;/span&gt;&lt;/font&gt;" style="shape=hexagon;perimeter=hexagonPerimeter2;whiteSpace=wrap;html=1;fixedSize=1;shadow=0;glass=0;fontSize=26;fillColor=#f0a30a;fontColor=#000000;strokeColor=#BD7000;" vertex="1" parent="1">
                    <mxGeometry x="2070" y="4063" width="170" height="90" as="geometry"/>
                </mxCell>
                <mxCell id="182" value="&lt;font color=&quot;#ffffff&quot;&gt;&lt;span style=&quot;font-size: 20px;&quot;&gt;Animations&lt;br&gt;System&lt;br&gt;&lt;/span&gt;&lt;/font&gt;" style="shape=hexagon;perimeter=hexagonPerimeter2;whiteSpace=wrap;html=1;fixedSize=1;shadow=0;glass=0;fontSize=26;fillColor=#f0a30a;fontColor=#000000;strokeColor=#BD7000;" vertex="1" parent="1">
                    <mxGeometry x="2070" y="4163" width="170" height="90" as="geometry"/>
                </mxCell>
                <mxCell id="183" value="&lt;font color=&quot;#ffffff&quot;&gt;&lt;span style=&quot;font-size: 20px;&quot;&gt;Timers&lt;br&gt;&lt;/span&gt;&lt;/font&gt;" style="shape=hexagon;perimeter=hexagonPerimeter2;whiteSpace=wrap;html=1;fixedSize=1;shadow=0;glass=0;fontSize=26;fillColor=#f0a30a;fontColor=#000000;strokeColor=#BD7000;" vertex="1" parent="1">
                    <mxGeometry x="2070" y="3863" width="170" height="90" as="geometry"/>
                </mxCell>
                <mxCell id="185" style="edgeStyle=none;html=1;exitX=0;exitY=0.5;exitDx=0;exitDy=0;fontSize=26;entryX=1;entryY=0.5;entryDx=0;entryDy=0;" edge="1" parent="1" source="184" target="161">
                    <mxGeometry relative="1" as="geometry">
                        <mxPoint x="1700" y="3145" as="sourcePoint"/>
                    </mxGeometry>
                </mxCell>
                <mxCell id="242" style="edgeStyle=none;html=1;exitX=0;exitY=0.5;exitDx=0;exitDy=0;entryX=1;entryY=0.5;entryDx=0;entryDy=0;fontSize=26;" edge="1" parent="1" source="184" target="241">
                    <mxGeometry relative="1" as="geometry"/>
                </mxCell>
                <mxCell id="184" value="&lt;span style=&quot;color: rgb(255, 255, 255); font-size: 20px;&quot;&gt;Communication&lt;/span&gt;&lt;br style=&quot;color: rgb(255, 255, 255); font-size: 20px;&quot;&gt;&lt;span style=&quot;color: rgb(255, 255, 255); font-size: 20px;&quot;&gt;With Graphics&lt;/span&gt;" style="shape=hexagon;perimeter=hexagonPerimeter2;whiteSpace=wrap;html=1;fixedSize=1;shadow=0;glass=0;fontSize=26;fillColor=#f0a30a;fontColor=#000000;strokeColor=#BD7000;" vertex="1" parent="1">
                    <mxGeometry x="1800" y="3205" width="170" height="90" as="geometry"/>
                </mxCell>
                <mxCell id="220" style="edgeStyle=none;html=1;exitX=1;exitY=0.5;exitDx=0;exitDy=0;entryX=0;entryY=0.5;entryDx=0;entryDy=0;fontSize=26;" edge="1" parent="1" source="186" target="222">
                    <mxGeometry relative="1" as="geometry"/>
                </mxCell>
                <mxCell id="186" value="Line" style="ellipse;whiteSpace=wrap;html=1;fontSize=20;fillColor=#008a00;fontColor=#ffffff;strokeColor=#005700;" vertex="1" parent="1">
                    <mxGeometry x="2880" y="2710" width="145" height="60" as="geometry"/>
                </mxCell>
                <mxCell id="215" style="edgeStyle=none;html=1;exitX=1;exitY=0.5;exitDx=0;exitDy=0;entryX=0;entryY=0.5;entryDx=0;entryDy=0;fontSize=26;fillColor=#1ba1e2;strokeColor=#006EAF;" edge="1" parent="1" source="187" target="186">
                    <mxGeometry relative="1" as="geometry"/>
                </mxCell>
                <mxCell id="216" style="edgeStyle=none;html=1;exitX=1;exitY=0.5;exitDx=0;exitDy=0;entryX=0;entryY=0.5;entryDx=0;entryDy=0;fontSize=26;fillColor=#1ba1e2;strokeColor=#006EAF;" edge="1" parent="1" source="187" target="191">
                    <mxGeometry relative="1" as="geometry"/>
                </mxCell>
                <mxCell id="217" style="edgeStyle=none;html=1;exitX=1;exitY=0.5;exitDx=0;exitDy=0;entryX=0;entryY=0.5;entryDx=0;entryDy=0;fontSize=26;fillColor=#1ba1e2;strokeColor=#006EAF;" edge="1" parent="1" source="187" target="192">
                    <mxGeometry relative="1" as="geometry"/>
                </mxCell>
                <mxCell id="218" style="edgeStyle=none;html=1;exitX=1;exitY=0.5;exitDx=0;exitDy=0;entryX=0;entryY=0.5;entryDx=0;entryDy=0;fontSize=26;fillColor=#1ba1e2;strokeColor=#006EAF;" edge="1" parent="1" source="187" target="194">
                    <mxGeometry relative="1" as="geometry"/>
                </mxCell>
                <mxCell id="187" value="2D" style="triangle;whiteSpace=wrap;html=1;shadow=0;glass=0;fontSize=26;fillColor=#0050ef;fontColor=#ffffff;strokeColor=#001DBC;" vertex="1" parent="1">
                    <mxGeometry x="2740" y="2830" width="60" height="80" as="geometry"/>
                </mxCell>
                <mxCell id="205" style="edgeStyle=none;html=1;exitX=1;exitY=0.5;exitDx=0;exitDy=0;entryX=0;entryY=0.5;entryDx=0;entryDy=0;fontSize=26;fillColor=#f0a30a;strokeColor=#BD7000;" edge="1" parent="1" source="188" target="195">
                    <mxGeometry relative="1" as="geometry"/>
                </mxCell>
                <mxCell id="206" style="edgeStyle=none;html=1;exitX=1;exitY=0.5;exitDx=0;exitDy=0;entryX=0;entryY=0.5;entryDx=0;entryDy=0;fontSize=26;fillColor=#f0a30a;strokeColor=#BD7000;" edge="1" parent="1" source="188" target="196">
                    <mxGeometry relative="1" as="geometry"/>
                </mxCell>
                <mxCell id="207" style="edgeStyle=none;html=1;exitX=1;exitY=0.5;exitDx=0;exitDy=0;entryX=0;entryY=0.5;entryDx=0;entryDy=0;fontSize=26;fillColor=#f0a30a;strokeColor=#BD7000;" edge="1" parent="1" source="188" target="197">
                    <mxGeometry relative="1" as="geometry"/>
                </mxCell>
                <mxCell id="208" style="edgeStyle=none;html=1;exitX=1;exitY=0.5;exitDx=0;exitDy=0;entryX=0;entryY=0.5;entryDx=0;entryDy=0;fontSize=26;fillColor=#f0a30a;strokeColor=#BD7000;" edge="1" parent="1" source="188" target="198">
                    <mxGeometry relative="1" as="geometry"/>
                </mxCell>
                <mxCell id="209" style="edgeStyle=none;html=1;exitX=1;exitY=0.5;exitDx=0;exitDy=0;entryX=0;entryY=0.5;entryDx=0;entryDy=0;fontSize=26;fillColor=#f0a30a;strokeColor=#BD7000;" edge="1" parent="1" source="188" target="194">
                    <mxGeometry relative="1" as="geometry"/>
                </mxCell>
                <mxCell id="210" style="edgeStyle=none;html=1;exitX=1;exitY=0.5;exitDx=0;exitDy=0;entryX=0;entryY=0.5;entryDx=0;entryDy=0;fontSize=26;fillColor=#f0a30a;strokeColor=#BD7000;" edge="1" parent="1" source="188" target="192">
                    <mxGeometry relative="1" as="geometry"/>
                </mxCell>
                <mxCell id="211" style="edgeStyle=none;html=1;exitX=1;exitY=0.5;exitDx=0;exitDy=0;entryX=0;entryY=0.5;entryDx=0;entryDy=0;fontSize=26;fillColor=#f0a30a;strokeColor=#BD7000;" edge="1" parent="1" source="188" target="191">
                    <mxGeometry relative="1" as="geometry"/>
                </mxCell>
                <mxCell id="212" style="edgeStyle=none;html=1;exitX=1;exitY=0.5;exitDx=0;exitDy=0;entryX=0;entryY=0.5;entryDx=0;entryDy=0;fontSize=26;fillColor=#f0a30a;strokeColor=#BD7000;" edge="1" parent="1" source="188" target="186">
                    <mxGeometry relative="1" as="geometry"/>
                </mxCell>
                <mxCell id="188" value="3D" style="triangle;whiteSpace=wrap;html=1;shadow=0;glass=0;fontSize=26;fillColor=#0050ef;fontColor=#ffffff;strokeColor=#001DBC;" vertex="1" parent="1">
                    <mxGeometry x="2740" y="2920" width="60" height="80" as="geometry"/>
                </mxCell>
                <mxCell id="221" style="edgeStyle=none;html=1;exitX=1;exitY=0.5;exitDx=0;exitDy=0;fontSize=26;entryX=0;entryY=0.5;entryDx=0;entryDy=0;" edge="1" parent="1" source="191" target="222">
                    <mxGeometry relative="1" as="geometry">
                        <mxPoint x="3090" y="2840" as="targetPoint"/>
                    </mxGeometry>
                </mxCell>
                <mxCell id="191" value="Plane" style="ellipse;whiteSpace=wrap;html=1;fontSize=20;fillColor=#008a00;fontColor=#ffffff;strokeColor=#005700;" vertex="1" parent="1">
                    <mxGeometry x="2880" y="2780" width="145" height="60" as="geometry"/>
                </mxCell>
                <mxCell id="223" style="edgeStyle=none;html=1;exitX=1;exitY=0.5;exitDx=0;exitDy=0;fontSize=26;entryX=0;entryY=0.5;entryDx=0;entryDy=0;" edge="1" parent="1" source="192" target="222">
                    <mxGeometry relative="1" as="geometry">
                        <mxPoint x="3260" y="3010" as="targetPoint"/>
                    </mxGeometry>
                </mxCell>
                <mxCell id="192" value="Trianle" style="ellipse;whiteSpace=wrap;html=1;fontSize=20;fillColor=#008a00;fontColor=#ffffff;strokeColor=#005700;" vertex="1" parent="1">
                    <mxGeometry x="2880" y="2850" width="145" height="60" as="geometry"/>
                </mxCell>
                <mxCell id="193" value="Geometry" style="ellipse;whiteSpace=wrap;html=1;fontSize=20;fillColor=#008a00;fontColor=#ffffff;strokeColor=#005700;" vertex="1" parent="1">
                    <mxGeometry x="3390" y="2945" width="145" height="60" as="geometry"/>
                </mxCell>
                <mxCell id="224" style="edgeStyle=none;html=1;exitX=1;exitY=0.5;exitDx=0;exitDy=0;entryX=0;entryY=0.5;entryDx=0;entryDy=0;fontSize=26;" edge="1" parent="1" source="194" target="222">
                    <mxGeometry relative="1" as="geometry"/>
                </mxCell>
                <mxCell id="194" value="Rectangle" style="ellipse;whiteSpace=wrap;html=1;fontSize=20;fillColor=#008a00;fontColor=#ffffff;strokeColor=#005700;" vertex="1" parent="1">
                    <mxGeometry x="2880" y="2920" width="145" height="60" as="geometry"/>
                </mxCell>
                <mxCell id="225" style="edgeStyle=none;html=1;exitX=1;exitY=0.5;exitDx=0;exitDy=0;entryX=0;entryY=0.5;entryDx=0;entryDy=0;fontSize=26;" edge="1" parent="1" source="195" target="222">
                    <mxGeometry relative="1" as="geometry"/>
                </mxCell>
                <mxCell id="195" value="Cube" style="ellipse;whiteSpace=wrap;html=1;fontSize=20;fillColor=#008a00;fontColor=#ffffff;strokeColor=#005700;" vertex="1" parent="1">
                    <mxGeometry x="2880" y="3040" width="145" height="60" as="geometry"/>
                </mxCell>
                <mxCell id="201" style="edgeStyle=none;html=1;exitX=1;exitY=0.5;exitDx=0;exitDy=0;entryX=0;entryY=0.5;entryDx=0;entryDy=0;fontSize=26;" edge="1" parent="1" source="196" target="199">
                    <mxGeometry relative="1" as="geometry"/>
                </mxCell>
                <mxCell id="202" style="edgeStyle=none;html=1;exitX=1;exitY=0.5;exitDx=0;exitDy=0;entryX=0;entryY=0.5;entryDx=0;entryDy=0;fontSize=26;" edge="1" parent="1" source="196" target="200">
                    <mxGeometry relative="1" as="geometry"/>
                </mxCell>
                <mxCell id="196" value="Shere" style="ellipse;whiteSpace=wrap;html=1;fontSize=20;fillColor=#008a00;fontColor=#ffffff;strokeColor=#005700;" vertex="1" parent="1">
                    <mxGeometry x="2880" y="3110" width="145" height="60" as="geometry"/>
                </mxCell>
                <mxCell id="228" style="edgeStyle=none;html=1;exitX=1;exitY=0.5;exitDx=0;exitDy=0;entryX=0;entryY=0.5;entryDx=0;entryDy=0;fontSize=26;" edge="1" parent="1" source="197" target="222">
                    <mxGeometry relative="1" as="geometry"/>
                </mxCell>
                <mxCell id="197" value="Cylinder" style="ellipse;whiteSpace=wrap;html=1;fontSize=20;fillColor=#008a00;fontColor=#ffffff;strokeColor=#005700;" vertex="1" parent="1">
                    <mxGeometry x="2880" y="3180" width="145" height="60" as="geometry"/>
                </mxCell>
                <mxCell id="198" value="..." style="ellipse;whiteSpace=wrap;html=1;fontSize=20;fillColor=#008a00;fontColor=#ffffff;strokeColor=#005700;" vertex="1" parent="1">
                    <mxGeometry x="2880" y="3250" width="145" height="60" as="geometry"/>
                </mxCell>
                <mxCell id="226" style="edgeStyle=none;html=1;exitX=1;exitY=0.5;exitDx=0;exitDy=0;entryX=0;entryY=0.5;entryDx=0;entryDy=0;fontSize=26;" edge="1" parent="1" source="199" target="222">
                    <mxGeometry relative="1" as="geometry"/>
                </mxCell>
                <mxCell id="199" value="Ico" style="ellipse;whiteSpace=wrap;html=1;fontSize=20;fillColor=#008a00;fontColor=#ffffff;strokeColor=#005700;" vertex="1" parent="1">
                    <mxGeometry x="3080" y="3080" width="145" height="60" as="geometry"/>
                </mxCell>
                <mxCell id="227" style="edgeStyle=none;html=1;exitX=1;exitY=0.5;exitDx=0;exitDy=0;entryX=0;entryY=0.5;entryDx=0;entryDy=0;fontSize=26;" edge="1" parent="1" source="200" target="222">
                    <mxGeometry relative="1" as="geometry"/>
                </mxCell>
                <mxCell id="200" value="..." style="ellipse;whiteSpace=wrap;html=1;fontSize=20;fillColor=#008a00;fontColor=#ffffff;strokeColor=#005700;" vertex="1" parent="1">
                    <mxGeometry x="3080" y="3150" width="145" height="60" as="geometry"/>
                </mxCell>
                <mxCell id="203" value="MeshLoader" style="ellipse;whiteSpace=wrap;html=1;fontSize=20;fillColor=#008a00;fontColor=#ffffff;strokeColor=#005700;" vertex="1" parent="1">
                    <mxGeometry x="2330" y="4038" width="145" height="60" as="geometry"/>
                </mxCell>
                <mxCell id="219" value="Material" style="ellipse;whiteSpace=wrap;html=1;fontSize=20;fillColor=#008a00;fontColor=#ffffff;strokeColor=#005700;" vertex="1" parent="1">
                    <mxGeometry x="3390" y="3015" width="145" height="60" as="geometry"/>
                </mxCell>
                <mxCell id="229" style="edgeStyle=none;html=1;exitX=1;exitY=0.5;exitDx=0;exitDy=0;entryX=0;entryY=0.5;entryDx=0;entryDy=0;fontSize=26;" edge="1" parent="1" source="222" target="193">
                    <mxGeometry relative="1" as="geometry"/>
                </mxCell>
                <mxCell id="230" style="edgeStyle=none;html=1;exitX=1;exitY=0.5;exitDx=0;exitDy=0;entryX=0;entryY=0.5;entryDx=0;entryDy=0;fontSize=26;" edge="1" parent="1" source="222" target="219">
                    <mxGeometry relative="1" as="geometry"/>
                </mxCell>
                <mxCell id="222" value="&lt;font color=&quot;#ffffff&quot;&gt;All&lt;/font&gt;" style="triangle;whiteSpace=wrap;html=1;shadow=0;glass=0;fontSize=26;fillColor=#e3c800;fontColor=#000000;strokeColor=#B09500;" vertex="1" parent="1">
                    <mxGeometry x="3300" y="2970" width="60" height="80" as="geometry"/>
                </mxCell>
                <mxCell id="233" value="&lt;font color=&quot;#ffffff&quot;&gt;&lt;span style=&quot;font-size: 20px;&quot;&gt;Scenes&lt;br&gt;System&lt;br&gt;&lt;/span&gt;&lt;/font&gt;" style="shape=hexagon;perimeter=hexagonPerimeter2;whiteSpace=wrap;html=1;fixedSize=1;shadow=0;glass=0;fontSize=26;fillColor=#f0a30a;fontColor=#000000;strokeColor=#BD7000;" vertex="1" parent="1">
                    <mxGeometry x="2060" y="3110" width="170" height="90" as="geometry"/>
                </mxCell>
                <mxCell id="240" value="" style="edgeStyle=none;html=1;fontSize=26;" edge="1" parent="1" source="235" target="156">
                    <mxGeometry relative="1" as="geometry"/>
                </mxCell>
                <mxCell id="235" value="&lt;font color=&quot;#ffffff&quot;&gt;&lt;span style=&quot;font-size: 20px;&quot;&gt;OpenGL&lt;/span&gt;&lt;/font&gt;" style="shape=hexagon;perimeter=hexagonPerimeter2;whiteSpace=wrap;html=1;fixedSize=1;shadow=0;glass=0;fontSize=26;fillColor=#f0a30a;fontColor=#000000;strokeColor=#BD7000;" vertex="1" parent="1">
                    <mxGeometry x="780" y="3515" width="170" height="90" as="geometry"/>
                </mxCell>
                <mxCell id="236" style="edgeStyle=none;html=1;exitX=1;exitY=0.5;exitDx=0;exitDy=0;entryX=0;entryY=0.5;entryDx=0;entryDy=0;fontSize=26;" edge="1" parent="1" source="156" target="159">
                    <mxGeometry relative="1" as="geometry"/>
                </mxCell>
                <mxCell id="237" style="edgeStyle=none;html=1;exitX=1;exitY=0.5;exitDx=0;exitDy=0;entryX=0;entryY=0.5;entryDx=0;entryDy=0;fontSize=26;" edge="1" parent="1" source="156" target="160">
                    <mxGeometry relative="1" as="geometry"/>
                </mxCell>
                <mxCell id="238" style="edgeStyle=none;html=1;exitX=1;exitY=0.5;exitDx=0;exitDy=0;entryX=0;entryY=0.5;entryDx=0;entryDy=0;fontSize=26;" edge="1" parent="1" source="156" target="169">
                    <mxGeometry relative="1" as="geometry"/>
                </mxCell>
                <mxCell id="156" value="ShaderProgram" style="ellipse;whiteSpace=wrap;html=1;fontSize=20;fillColor=#008a00;fontColor=#ffffff;strokeColor=#005700;" vertex="1" parent="1">
                    <mxGeometry x="1004.75" y="3530" width="170" height="60" as="geometry"/>
                </mxCell>
                <mxCell id="159" value="VertexBuffer" style="ellipse;whiteSpace=wrap;html=1;fontSize=20;fillColor=#008a00;fontColor=#ffffff;strokeColor=#005700;" vertex="1" parent="1">
                    <mxGeometry x="1235" y="3470" width="120" height="60" as="geometry"/>
                </mxCell>
                <mxCell id="160" value="IndexBuffer" style="ellipse;whiteSpace=wrap;html=1;fontSize=20;fillColor=#008a00;fontColor=#ffffff;strokeColor=#005700;" vertex="1" parent="1">
                    <mxGeometry x="1235" y="3530" width="120" height="60" as="geometry"/>
                </mxCell>
                <mxCell id="281" style="edgeStyle=none;html=1;exitX=1;exitY=0.5;exitDx=0;exitDy=0;entryX=0;entryY=0.5;entryDx=0;entryDy=0;fontSize=18;" edge="1" parent="1" source="169" target="280">
                    <mxGeometry relative="1" as="geometry"/>
                </mxCell>
                <mxCell id="169" value="RenderBuffer" style="ellipse;whiteSpace=wrap;html=1;fontSize=20;fillColor=#008a00;fontColor=#ffffff;strokeColor=#005700;" vertex="1" parent="1">
                    <mxGeometry x="1230" y="3590" width="130" height="60" as="geometry"/>
                </mxCell>
                <mxCell id="270" style="edgeStyle=none;html=1;exitX=1;exitY=0.5;exitDx=0;exitDy=0;entryX=0;entryY=0.5;entryDx=0;entryDy=0;fontSize=26;" edge="1" parent="1" source="247" target="248">
                    <mxGeometry relative="1" as="geometry"/>
                </mxCell>
                <mxCell id="247" value="&lt;font color=&quot;#ffffff&quot;&gt;&lt;span style=&quot;font-size: 20px;&quot;&gt;Input&lt;br&gt;System&lt;br&gt;&lt;/span&gt;&lt;/font&gt;" style="shape=hexagon;perimeter=hexagonPerimeter2;whiteSpace=wrap;html=1;fixedSize=1;shadow=0;glass=0;fontSize=26;fillColor=#f0a30a;fontColor=#000000;strokeColor=#BD7000;" vertex="1" parent="1">
                    <mxGeometry x="2070" y="4263" width="170" height="90" as="geometry"/>
                </mxCell>
                <mxCell id="257" style="edgeStyle=none;html=1;exitX=1;exitY=0.5;exitDx=0;exitDy=0;entryX=0;entryY=0.5;entryDx=0;entryDy=0;fontSize=26;" edge="1" parent="1" source="248" target="253">
                    <mxGeometry relative="1" as="geometry"/>
                </mxCell>
                <mxCell id="258" style="edgeStyle=none;html=1;exitX=1;exitY=0.5;exitDx=0;exitDy=0;entryX=0;entryY=0.5;entryDx=0;entryDy=0;fontSize=26;" edge="1" parent="1" source="248" target="254">
                    <mxGeometry relative="1" as="geometry"/>
                </mxCell>
                <mxCell id="259" style="edgeStyle=none;html=1;exitX=1;exitY=0.5;exitDx=0;exitDy=0;entryX=0;entryY=0.5;entryDx=0;entryDy=0;fontSize=26;" edge="1" parent="1" source="248" target="255">
                    <mxGeometry relative="1" as="geometry"/>
                </mxCell>
                <mxCell id="248" value="Controls" style="ellipse;whiteSpace=wrap;html=1;fontSize=20;fillColor=#008a00;fontColor=#ffffff;strokeColor=#005700;" vertex="1" parent="1">
                    <mxGeometry x="2320" y="4278" width="145" height="60" as="geometry"/>
                </mxCell>
                <mxCell id="249" value="Mouse" style="ellipse;whiteSpace=wrap;html=1;fontSize=20;fillColor=#008a00;fontColor=#ffffff;strokeColor=#005700;" vertex="1" parent="1">
                    <mxGeometry x="2905" y="4188" width="145" height="60" as="geometry"/>
                </mxCell>
                <mxCell id="250" value="Keyboard" style="ellipse;whiteSpace=wrap;html=1;fontSize=20;fillColor=#008a00;fontColor=#ffffff;strokeColor=#005700;" vertex="1" parent="1">
                    <mxGeometry x="2905" y="4248" width="145" height="60" as="geometry"/>
                </mxCell>
                <mxCell id="251" value="Touchscreen" style="ellipse;whiteSpace=wrap;html=1;fontSize=20;fillColor=#008a00;fontColor=#ffffff;strokeColor=#005700;" vertex="1" parent="1">
                    <mxGeometry x="2905" y="4308" width="145" height="60" as="geometry"/>
                </mxCell>
                <mxCell id="267" style="edgeStyle=none;html=1;exitX=1;exitY=0.5;exitDx=0;exitDy=0;entryX=0;entryY=0.5;entryDx=0;entryDy=0;fontSize=26;" edge="1" parent="1" source="253" target="261">
                    <mxGeometry relative="1" as="geometry"/>
                </mxCell>
                <mxCell id="253" value="Drag" style="ellipse;whiteSpace=wrap;html=1;fontSize=20;fillColor=#008a00;fontColor=#ffffff;strokeColor=#005700;" vertex="1" parent="1">
                    <mxGeometry x="2512.5" y="4218" width="145" height="60" as="geometry"/>
                </mxCell>
                <mxCell id="268" style="edgeStyle=none;html=1;exitX=1;exitY=0.5;exitDx=0;exitDy=0;entryX=0;entryY=0.5;entryDx=0;entryDy=0;fontSize=26;" edge="1" parent="1" source="254" target="261">
                    <mxGeometry relative="1" as="geometry"/>
                </mxCell>
                <mxCell id="254" value="Orbit" style="ellipse;whiteSpace=wrap;html=1;fontSize=20;fillColor=#008a00;fontColor=#ffffff;strokeColor=#005700;" vertex="1" parent="1">
                    <mxGeometry x="2512.5" y="4278" width="145" height="60" as="geometry"/>
                </mxCell>
                <mxCell id="269" style="edgeStyle=none;html=1;exitX=1;exitY=0.5;exitDx=0;exitDy=0;entryX=0;entryY=0.5;entryDx=0;entryDy=0;fontSize=26;" edge="1" parent="1" source="255" target="261">
                    <mxGeometry relative="1" as="geometry"/>
                </mxCell>
                <mxCell id="255" value="..." style="ellipse;whiteSpace=wrap;html=1;fontSize=20;fillColor=#008a00;fontColor=#ffffff;strokeColor=#005700;" vertex="1" parent="1">
                    <mxGeometry x="2512.5" y="4338" width="145" height="60" as="geometry"/>
                </mxCell>
                <mxCell id="263" style="edgeStyle=none;html=1;exitX=1;exitY=0.5;exitDx=0;exitDy=0;entryX=0;entryY=0.5;entryDx=0;entryDy=0;fontSize=26;" edge="1" parent="1" source="261" target="249">
                    <mxGeometry relative="1" as="geometry"/>
                </mxCell>
                <mxCell id="264" style="edgeStyle=none;html=1;exitX=1;exitY=0.5;exitDx=0;exitDy=0;entryX=0;entryY=0.5;entryDx=0;entryDy=0;fontSize=26;" edge="1" parent="1" source="261" target="250">
                    <mxGeometry relative="1" as="geometry"/>
                </mxCell>
                <mxCell id="265" style="edgeStyle=none;html=1;exitX=1;exitY=0.5;exitDx=0;exitDy=0;entryX=0;entryY=0.5;entryDx=0;entryDy=0;fontSize=26;" edge="1" parent="1" source="261" target="251">
                    <mxGeometry relative="1" as="geometry"/>
                </mxCell>
                <mxCell id="266" style="edgeStyle=none;html=1;exitX=1;exitY=0.5;exitDx=0;exitDy=0;entryX=0;entryY=0.5;entryDx=0;entryDy=0;fontSize=26;" edge="1" parent="1" source="261" target="262">
                    <mxGeometry relative="1" as="geometry"/>
                </mxCell>
                <mxCell id="261" value="&lt;font color=&quot;#ffffff&quot;&gt;All&lt;/font&gt;" style="triangle;whiteSpace=wrap;html=1;shadow=0;glass=0;fontSize=26;fillColor=#e3c800;fontColor=#000000;strokeColor=#B09500;" vertex="1" parent="1">
                    <mxGeometry x="2740" y="4268" width="75" height="80" as="geometry"/>
                </mxCell>
                <mxCell id="262" value="..." style="ellipse;whiteSpace=wrap;html=1;fontSize=20;fillColor=#008a00;fontColor=#ffffff;strokeColor=#005700;" vertex="1" parent="1">
                    <mxGeometry x="2905" y="4368" width="145" height="60" as="geometry"/>
                </mxCell>
                <mxCell id="273" style="edgeStyle=none;html=1;exitX=1;exitY=0.5;exitDx=0;exitDy=0;entryX=0;entryY=0.5;entryDx=0;entryDy=0;fontSize=29;" edge="1" parent="1" source="271" target="272">
                    <mxGeometry relative="1" as="geometry"/>
                </mxCell>
                <mxCell id="278" style="edgeStyle=none;html=1;exitX=0;exitY=0.5;exitDx=0;exitDy=0;entryX=1;entryY=0.5;entryDx=0;entryDy=0;fontSize=18;" edge="1" parent="1" source="271" target="277">
                    <mxGeometry relative="1" as="geometry"/>
                </mxCell>
                <mxCell id="271" value="&lt;font color=&quot;#ffffff&quot;&gt;&lt;span style=&quot;font-size: 20px;&quot;&gt;Post Processing&lt;br&gt;And Effects&lt;br&gt;&lt;/span&gt;&lt;/font&gt;" style="shape=hexagon;perimeter=hexagonPerimeter2;whiteSpace=wrap;html=1;fixedSize=1;shadow=0;glass=0;fontSize=26;fillColor=#f0a30a;fontColor=#000000;strokeColor=#BD7000;" vertex="1" parent="1">
                    <mxGeometry x="2070" y="3575" width="170" height="90" as="geometry"/>
                </mxCell>
                <mxCell id="287" style="edgeStyle=none;html=1;exitX=1;exitY=0.5;exitDx=0;exitDy=0;entryX=0;entryY=0.5;entryDx=0;entryDy=0;fontSize=18;" edge="1" parent="1" source="272" target="274">
                    <mxGeometry relative="1" as="geometry"/>
                </mxCell>
                <mxCell id="288" style="edgeStyle=none;html=1;exitX=1;exitY=0.5;exitDx=0;exitDy=0;entryX=0;entryY=0.5;entryDx=0;entryDy=0;fontSize=18;" edge="1" parent="1" source="272" target="275">
                    <mxGeometry relative="1" as="geometry"/>
                </mxCell>
                <mxCell id="291" style="edgeStyle=none;html=1;exitX=1;exitY=0.5;exitDx=0;exitDy=0;entryX=0;entryY=0.5;entryDx=0;entryDy=0;fontSize=18;" edge="1" parent="1" source="272" target="289">
                    <mxGeometry relative="1" as="geometry"/>
                </mxCell>
                <mxCell id="292" style="edgeStyle=none;html=1;exitX=1;exitY=0.5;exitDx=0;exitDy=0;entryX=0;entryY=0.5;entryDx=0;entryDy=0;fontSize=18;" edge="1" parent="1" source="272" target="290">
                    <mxGeometry relative="1" as="geometry"/>
                </mxCell>
                <mxCell id="272" value="&lt;h1 style=&quot;line-height: 26%;&quot;&gt;&lt;font style=&quot;font-size: 18px;&quot;&gt;Classes that have their own shaders ready, they create the materials, handle the geometry, etc.&lt;/font&gt;&lt;/h1&gt;" style="text;html=1;strokeColor=#314354;fillColor=#647687;spacing=5;spacingTop=-50;whiteSpace=wrap;overflow=hidden;rounded=0;shadow=0;glass=0;fontSize=26;fontColor=#ffffff;verticalAlign=top;" vertex="1" parent="1">
                    <mxGeometry x="2302.5" y="3550" width="210" height="140" as="geometry"/>
                </mxCell>
                <mxCell id="274" value="Simple &lt;br&gt;Shadow" style="ellipse;whiteSpace=wrap;html=1;fontSize=20;fillColor=#008a00;fontColor=#ffffff;strokeColor=#005700;" vertex="1" parent="1">
                    <mxGeometry x="2570" y="3505" width="145" height="60" as="geometry"/>
                </mxCell>
                <mxCell id="275" value="Bloom" style="ellipse;whiteSpace=wrap;html=1;fontSize=20;fillColor=#008a00;fontColor=#ffffff;strokeColor=#005700;" vertex="1" parent="1">
                    <mxGeometry x="2570" y="3565" width="145" height="60" as="geometry"/>
                </mxCell>
                <mxCell id="276" value="Function Call" style="ellipse;whiteSpace=wrap;html=1;fontSize=20;fillColor=#008a00;fontColor=#ffffff;strokeColor=#005700;" vertex="1" parent="1">
                    <mxGeometry x="1600" y="3590" width="145" height="60" as="geometry"/>
                </mxCell>
                <mxCell id="279" style="edgeStyle=none;html=1;exitX=0;exitY=0.5;exitDx=0;exitDy=0;entryX=1;entryY=0.5;entryDx=0;entryDy=0;fontSize=18;" edge="1" parent="1" source="277" target="276">
                    <mxGeometry relative="1" as="geometry"/>
                </mxCell>
                <mxCell id="277" value="&lt;span style=&quot;color: rgb(255, 255, 255); font-size: 20px;&quot;&gt;Communication&lt;/span&gt;&lt;br style=&quot;color: rgb(255, 255, 255); font-size: 20px;&quot;&gt;&lt;span style=&quot;color: rgb(255, 255, 255); font-size: 20px;&quot;&gt;With Graphics&lt;/span&gt;" style="shape=hexagon;perimeter=hexagonPerimeter2;whiteSpace=wrap;html=1;fixedSize=1;shadow=0;glass=0;fontSize=26;fillColor=#f0a30a;fontColor=#000000;strokeColor=#BD7000;" vertex="1" parent="1">
                    <mxGeometry x="1820" y="3575" width="170" height="90" as="geometry"/>
                </mxCell>
                <mxCell id="282" style="edgeStyle=none;html=1;exitX=1;exitY=0.5;exitDx=0;exitDy=0;entryX=0;entryY=0.5;entryDx=0;entryDy=0;fontSize=18;" edge="1" parent="1" source="280" target="276">
                    <mxGeometry relative="1" as="geometry"/>
                </mxCell>
                <mxCell id="280" value="&lt;span style=&quot;color: rgb(255, 255, 255); font-size: 20px;&quot;&gt;Communication&lt;/span&gt;&lt;br style=&quot;color: rgb(255, 255, 255); font-size: 20px;&quot;&gt;&lt;span style=&quot;color: rgb(255, 255, 255); font-size: 20px;&quot;&gt;With&lt;/span&gt;&lt;br style=&quot;color: rgb(255, 255, 255); font-size: 20px;&quot;&gt;&lt;span style=&quot;color: rgb(255, 255, 255); font-size: 20px;&quot;&gt;Engine&lt;/span&gt;" style="shape=hexagon;perimeter=hexagonPerimeter2;whiteSpace=wrap;html=1;fixedSize=1;shadow=0;glass=0;fontSize=26;fillColor=#f0a30a;fontColor=#000000;strokeColor=#BD7000;" vertex="1" parent="1">
                    <mxGeometry x="1390" y="3575" width="170" height="90" as="geometry"/>
                </mxCell>
                <mxCell id="286" style="edgeStyle=none;html=1;exitX=1;exitY=0.5;exitDx=0;exitDy=0;entryX=0;entryY=0.5;entryDx=0;entryDy=0;fontSize=18;" edge="1" parent="1" source="285" target="235">
                    <mxGeometry relative="1" as="geometry"/>
                </mxCell>
                <mxCell id="285" value="&lt;font color=&quot;#ffffff&quot;&gt;&lt;span style=&quot;font-size: 20px;&quot;&gt;Graphics API&lt;/span&gt;&lt;/font&gt;" style="shape=hexagon;perimeter=hexagonPerimeter2;whiteSpace=wrap;html=1;fixedSize=1;shadow=0;glass=0;fontSize=26;fillColor=#f0a30a;fontColor=#000000;strokeColor=#BD7000;" vertex="1" parent="1">
                    <mxGeometry x="550" y="3515" width="170" height="90" as="geometry"/>
                </mxCell>
                <mxCell id="289" value="Outline" style="ellipse;whiteSpace=wrap;html=1;fontSize=20;fillColor=#008a00;fontColor=#ffffff;strokeColor=#005700;" vertex="1" parent="1">
                    <mxGeometry x="2570" y="3625" width="145" height="60" as="geometry"/>
                </mxCell>
                <mxCell id="290" value="..." style="ellipse;whiteSpace=wrap;html=1;fontSize=20;fillColor=#008a00;fontColor=#ffffff;strokeColor=#005700;" vertex="1" parent="1">
                    <mxGeometry x="2570" y="3685" width="145" height="60" as="geometry"/>
                </mxCell>
                <mxCell id="304" style="edgeStyle=none;html=1;exitX=1;exitY=0.5;exitDx=0;exitDy=0;entryX=0;entryY=0.5;entryDx=0;entryDy=0;fontSize=18;fontColor=#FFFFFF;" edge="1" parent="1" source="293" target="294">
                    <mxGeometry relative="1" as="geometry"/>
                </mxCell>
                <mxCell id="305" style="edgeStyle=none;html=1;exitX=1;exitY=0.5;exitDx=0;exitDy=0;entryX=0;entryY=0.5;entryDx=0;entryDy=0;fontSize=18;fontColor=#FFFFFF;" edge="1" parent="1" source="293" target="295">
                    <mxGeometry relative="1" as="geometry"/>
                </mxCell>
                <mxCell id="307" style="edgeStyle=none;html=1;exitX=1;exitY=0.5;exitDx=0;exitDy=0;entryX=0;entryY=0.5;entryDx=0;entryDy=0;fontSize=18;fontColor=#FFFFFF;" edge="1" parent="1" source="293" target="306">
                    <mxGeometry relative="1" as="geometry"/>
                </mxCell>
                <mxCell id="293" value="&lt;font color=&quot;#ffffff&quot;&gt;&lt;span style=&quot;font-size: 20px;&quot;&gt;File&lt;br&gt;System&lt;br&gt;&lt;/span&gt;&lt;/font&gt;" style="shape=hexagon;perimeter=hexagonPerimeter2;whiteSpace=wrap;html=1;fixedSize=1;shadow=0;glass=0;fontSize=26;fillColor=#f0a30a;fontColor=#000000;strokeColor=#BD7000;" vertex="1" parent="1">
                    <mxGeometry x="2080" y="4473" width="170" height="90" as="geometry"/>
                </mxCell>
                <mxCell id="302" style="edgeStyle=none;html=1;exitX=1;exitY=0.5;exitDx=0;exitDy=0;entryX=0;entryY=0.5;entryDx=0;entryDy=0;entryPerimeter=0;fontSize=18;fontColor=#FFFFFF;" edge="1" parent="1" source="294" target="298">
                    <mxGeometry relative="1" as="geometry"/>
                </mxCell>
                <mxCell id="294" value="Load" style="ellipse;whiteSpace=wrap;html=1;fontSize=20;fillColor=#008a00;fontColor=#ffffff;strokeColor=#005700;" vertex="1" parent="1">
                    <mxGeometry x="2310" y="4458" width="145" height="60" as="geometry"/>
                </mxCell>
                <mxCell id="303" style="edgeStyle=none;html=1;exitX=1;exitY=0.5;exitDx=0;exitDy=0;entryX=0;entryY=0.5;entryDx=0;entryDy=0;entryPerimeter=0;fontSize=18;fontColor=#FFFFFF;" edge="1" parent="1" source="295" target="298">
                    <mxGeometry relative="1" as="geometry"/>
                </mxCell>
                <mxCell id="295" value="Save" style="ellipse;whiteSpace=wrap;html=1;fontSize=20;fillColor=#008a00;fontColor=#ffffff;strokeColor=#005700;" vertex="1" parent="1">
                    <mxGeometry x="2310" y="4518" width="145" height="60" as="geometry"/>
                </mxCell>
                <mxCell id="296" value="json" style="ellipse;whiteSpace=wrap;html=1;fontSize=20;fillColor=#008a00;fontColor=#ffffff;strokeColor=#005700;" vertex="1" parent="1">
                    <mxGeometry x="2665" y="4458" width="145" height="60" as="geometry"/>
                </mxCell>
                <mxCell id="300" style="edgeStyle=none;html=1;exitX=1;exitY=0.5;exitDx=0;exitDy=0;exitPerimeter=0;entryX=0;entryY=0.5;entryDx=0;entryDy=0;fontSize=18;fontColor=#FFFFFF;" edge="1" parent="1" source="298" target="296">
                    <mxGeometry relative="1" as="geometry"/>
                </mxCell>
                <mxCell id="301" style="edgeStyle=none;html=1;exitX=1;exitY=0.5;exitDx=0;exitDy=0;exitPerimeter=0;entryX=0;entryY=0.5;entryDx=0;entryDy=0;fontSize=18;fontColor=#FFFFFF;" edge="1" parent="1" source="298" target="299">
                    <mxGeometry relative="1" as="geometry"/>
                </mxCell>
                <mxCell id="298" value="&lt;font color=&quot;#ffffff&quot;&gt;Types&lt;/font&gt;" style="strokeWidth=2;html=1;shape=mxgraph.flowchart.decision;whiteSpace=wrap;shadow=0;glass=0;fontSize=18;fillColor=#fa6800;fontColor=#000000;strokeColor=#C73500;" vertex="1" parent="1">
                    <mxGeometry x="2507.5" y="4468" width="100" height="100" as="geometry"/>
                </mxCell>
                <mxCell id="299" value="text" style="ellipse;whiteSpace=wrap;html=1;fontSize=20;fillColor=#008a00;fontColor=#ffffff;strokeColor=#005700;" vertex="1" parent="1">
                    <mxGeometry x="2665" y="4518" width="145" height="60" as="geometry"/>
                </mxCell>
                <mxCell id="306" value="Debuging" style="ellipse;whiteSpace=wrap;html=1;fontSize=20;fillColor=#008a00;fontColor=#ffffff;strokeColor=#005700;" vertex="1" parent="1">
                    <mxGeometry x="2310" y="4578" width="145" height="60" as="geometry"/>
                </mxCell>
            </root>
        </mxGraphModel>
    </diagram>
</mxfile>